<svg width="50" height="50" viewBox="0 0 50 50" fill="none" xmlns="http://www.w3.org/2000/svg">
<g clip-path="url(#clip0_1104_1089)">
<path d="M27.8139 50.1157C25.4237 50.1157 23.4744 48.1712 23.4685 45.781C23.4765 45.7311 23.3441 43.4962 24.8798 41.4498C24.93 41.3551 26.2556 39.1004 26.2648 37.4458C26.265 37.4171 26.2648 37.3723 26.2648 37.3723C26.2576 34.9235 25.8492 32.544 25.0509 30.3024C23.9918 27.3274 24.097 24.2087 25.3396 21.1718C17.8568 23.6501 10.0984 25.203 2.24528 25.7919C1.70602 25.8318 1.25 25.4052 1.25 24.8685V10.3009C1.25 9.78954 1.66454 9.375 2.17593 9.375H27.9981C33.2994 9.375 37.7696 13.7517 37.3044 19.3571L35.8943 37.0018C35.7099 39.308 37.2769 41.4127 39.5392 41.8975L45.7167 43.2212C47.3133 43.5633 48.4722 44.9968 48.4722 46.6298C48.4722 48.5288 46.9461 50.078 45.0559 50.1152C45.0218 50.1163 45.8044 50.1155 27.8139 50.1157ZM27.8899 18.9706C28.1382 19.2713 28.1715 19.6954 27.9731 20.0311C26.0631 23.264 25.6668 26.5106 26.7955 29.6811C28.8993 35.5885 28.4741 38.558 26.3642 42.5569C25.2511 44.0401 25.3234 45.759 25.3204 45.7786C25.3237 47.148 26.4423 48.2638 27.8139 48.2638H44.9862C45.8872 48.2638 46.6204 47.5307 46.6204 46.6296C46.6204 45.8642 46.0771 45.1922 45.3286 45.0318L39.1511 43.708C35.984 43.0294 33.7903 40.0829 34.0482 36.8541C35.5218 18.4169 35.4563 19.2326 35.4587 19.2064C35.8319 14.7245 32.291 11.2269 27.9981 11.2269H3.10185V23.8653C11.2033 23.1713 19.1923 21.4312 26.8642 18.6883C27.2299 18.5576 27.6405 18.6685 27.8899 18.9706Z" fill="#3E5798"/>
<path d="M34.9581 38.0784H27.1886C26.6772 38.0784 26.2627 37.6639 26.2627 37.1525C26.2627 36.6411 26.6772 36.2266 27.1886 36.2266H34.9581C35.4695 36.2266 35.884 36.6411 35.884 37.1525C35.884 37.6639 35.4695 38.0784 34.9581 38.0784Z" fill="#3E5798"/>
<path d="M7.40822 10.6811C7.40822 10.6811 6.92684 11.5912 7.06291 12.6599C7.17132 13.5114 8.05684 14.4078 8.07461 14.9196C8.12513 16.3743 7.48073 17.3848 7.48073 17.3848C7.04733 18.0379 6.99369 18.082 6.4823 18.082C5.97091 18.082 5.30834 18.1078 5.30834 17.3001C5.30834 16.4923 6.44831 16.4588 6.39195 15.0012C6.3721 14.4881 5.24188 13.5107 5.1276 12.6599C4.98403 11.5909 5.55637 10.6811 5.55637 10.6811C5.80699 10.2599 5.97091 9.89299 6.4823 9.89299C6.99369 9.89299 7.73025 9.98777 7.40822 10.6811Z" fill="#3E5798"/>
<path d="M29.5553 10.1902C29.5553 10.1902 29.0393 11.0723 29.1342 12.1353C29.2098 12.9823 30.0602 13.9039 30.0582 14.4112C30.0528 15.8529 29.37 16.828 29.37 16.828C28.9118 17.4576 28.8565 17.4991 28.3455 17.4793C27.8345 17.4594 27.201 16.9229 27.4506 16.6633C27.4506 16.6633 28.374 15.8714 28.3737 14.4266C28.3736 13.918 27.2818 12.9067 27.2003 12.0602C27.098 10.9967 27.7049 10.1183 27.7049 10.1183C27.9715 9.71124 28.1494 9.35443 28.6604 9.37428C29.1714 9.39414 29.9038 9.51654 29.5553 10.1902Z" fill="#3E5798"/>
<path d="M26.9713 17.6383C26.9713 17.6383 24.3136 16.0832 21.2201 16.3436C18.7552 16.5511 15.8869 20.0261 14.4036 20.1018C10.1876 20.3171 7.40664 18.9546 7.40664 18.9546C5.85367 18.1284 5.49434 18.0395 5.47392 17.5111C5.45349 16.9827 7.31846 16.2532 7.79926 16.5607C8.28005 16.8682 9.591 18.6862 13.8152 18.4646C15.3023 18.3866 18.7577 14.7178 21.2201 14.5044C24.314 14.2362 26.9712 15.2963 26.9712 15.2963C28.2733 15.8008 29.1991 16.0648 29.2196 16.5933C29.24 17.1217 28.5709 18.9546 26.9713 17.6383Z" fill="#3E5798"/>
<path d="M14.7778 16.7718H11.3986C11.1762 16.7718 10.7578 16.3572 10.7578 15.8458C10.7578 15.3345 11.1762 14.9199 11.3986 14.9199H14.7778C15.0002 14.9199 15.3805 15.3345 15.3805 15.8458C15.3805 16.3572 15.0002 16.7718 14.7778 16.7718Z" fill="#3E5798"/>
<path d="M12.0971 13.43H8.71796C8.49554 13.43 8.07715 13.0154 8.07715 12.5041C8.07715 11.9927 8.49554 11.5781 8.71796 11.5781H12.0971C12.3195 11.5781 12.6998 11.9927 12.6998 12.5041C12.6998 13.0154 12.3195 13.43 12.0971 13.43Z" fill="#3E5798"/>
<path d="M18.7778 14.1858H15.3986C15.1762 14.1858 14.7578 13.7713 14.7578 13.2599C14.7578 12.7485 15.1762 12.334 15.3986 12.334H18.7778C19.0002 12.334 19.3805 12.7485 19.3805 13.2599C19.3805 13.7713 19.0002 14.1858 18.7778 14.1858Z" fill="#3E5798"/>
<path d="M24.8826 13.43H21.5034C21.281 13.43 20.8242 13.0154 20.8242 12.5041C20.8242 11.9927 21.281 11.5781 21.5034 11.5781H24.8826C25.105 11.5781 25.5855 11.9927 25.5855 12.5041C25.5855 13.0154 25.105 13.43 24.8826 13.43Z" fill="#3E5798"/>
<path d="M196 -140C176.427 -140 158.715 -131.916 146 -118.923V-240C146 -262.056 128.056 -280 106 -280C97.769 -280 90.112 -277.499 83.745 -273.219C78.273 -288.797 63.424 -300 46 -300C28.576 -300 13.727 -288.797 8.255 -273.219C1.88801 -277.499 -5.769 -280 -14 -280C-31.424 -280 -46.273 -268.797 -51.745 -253.219C-58.112 -257.499 -65.769 -260 -74 -260C-96.056 -260 -114 -242.056 -114 -220V-20C-114 13.266 -103.369 46.249 -84 73.272V200C-84 205.522 -79.522 210 -74 210H166C171.522 210 176 205.522 176 200V74.033C195.377 53.18 206 26.192 206 -2.427V-130C206 -135.522 201.522 -140 196 -140ZM186 -2.427C186 22.261 176.386 45.471 158.929 62.928C157.054 64.805 156 67.348 156 70V190H-64V70C-64 67.836 -64.702 65.731 -66 64C-84.056 39.925 -94 10.094 -94 -20V-220C-94 -231.028 -85.028 -240 -74 -240C-62.972 -240 -54 -231.028 -54 -220V-110C-54 -104.478 -49.522 -100 -44 -100C-38.478 -100 -34 -104.478 -34 -110C-34 -126.538 -34 -220.846 -34 -240C-34 -251.028 -25.028 -260 -14 -260C-2.972 -260 6 -251.028 6 -240C6 -235.467 6 -114.53 6 -110C6 -104.478 10.478 -100 16 -100C21.522 -100 26 -104.478 26 -110C26 -129.305 26 -236.504 26 -260C26 -271.028 34.972 -280 46 -280C57.028 -280 66 -271.028 66 -260C66 -236.247 66 -129.011 66 -110C66 -104.478 70.478 -100 76 -100C81.522 -100 86 -104.478 86 -110C86 -114.541 86 -235.471 86 -240C86 -251.028 94.972 -260 106 -260C117.028 -260 126 -251.028 126 -240C126 -239.347 126.046 -39.141 126 -20C126 -14.478 130.478 -10 136 -10C141.522 -10 146 -14.478 146 -20V-70C146 -94.146 163.206 -114.35 186 -118.995V-2.427Z" fill="black"/>
</g>
<defs>
<clipPath id="clip0_1104_1089">
<rect width="50" height="50" fill="white"/>
</clipPath>
</defs>
</svg>
