<svg width="50" height="50" viewBox="0 0 50 50" fill="none" xmlns="http://www.w3.org/2000/svg">
<g id="noun-first-aid-5760371 1">
<g id="Group">
<g id="Group_2">
<path id="Vector" d="M36.5741 14.3509H13.4259C12.9145 14.3509 12.5 13.9364 12.5 13.425V9.72128C12.5 7.67906 14.1615 6.01758 16.2037 6.01758H33.7963C35.8385 6.01758 37.5 7.67906 37.5 9.72128V13.425C37.5 13.9364 37.0854 14.3509 36.5741 14.3509ZM14.3519 12.4991H35.6481V9.72128C35.6481 8.70017 34.8174 7.86943 33.7963 7.86943H16.2037C15.1826 7.86943 14.3519 8.70017 14.3519 9.72128V12.4991Z" fill="#3E5798"/>
<path id="Vector_2" d="M40.2776 24.537H9.722C5.12701 24.537 1.38867 20.7987 1.38867 16.2037C1.38867 14.1615 3.05015 12.5 5.09238 12.5H44.9072C46.9494 12.5 48.6109 14.1615 48.6109 16.2037C48.6109 20.7987 44.8726 24.537 40.2776 24.537ZM5.09238 14.3519C4.07126 14.3519 3.24052 15.1826 3.24052 16.2037C3.24052 19.7776 6.14812 22.6852 9.722 22.6852H40.2776C43.8515 22.6852 46.759 19.7776 46.759 16.2037C46.759 15.1826 45.9283 14.3519 44.9072 14.3519H5.09238Z" fill="#3E5798"/>
<path id="Vector_3" d="M44.9072 43.9815H5.09238C3.05015 43.9815 1.38867 42.32 1.38867 40.2778V16.2037C1.38867 14.1615 3.05015 12.5 5.09238 12.5H44.9072C46.9494 12.5 48.6109 14.1615 48.6109 16.2037V40.2778C48.6109 42.32 46.9494 43.9815 44.9072 43.9815ZM5.09238 14.3519C4.07126 14.3519 3.24052 15.1826 3.24052 16.2037V40.2778C3.24052 41.2989 4.07126 42.1296 5.09238 42.1296H44.9072C45.9283 42.1296 46.759 41.2989 46.759 40.2778V16.2037C46.759 15.1826 45.9283 14.3519 44.9072 14.3519H5.09238Z" fill="#3E5798"/>
<path id="Vector_4" d="M9.72182 43.9799C9.21044 43.9799 8.7959 43.5654 8.7959 43.054V23.6095C8.7959 23.0981 9.21044 22.6836 9.72182 22.6836C10.2332 22.6836 10.6478 23.0981 10.6478 23.6095V43.054C10.6478 43.5654 10.2332 43.9799 9.72182 43.9799Z" fill="#3E5798"/>
<path id="Vector_5" d="M40.2775 43.9799C39.7662 43.9799 39.3516 43.5654 39.3516 43.054V23.6095C39.3516 23.0981 39.7662 22.6836 40.2775 22.6836C40.7888 22.6836 41.2034 23.0981 41.2034 23.6095V43.054C41.2034 43.5654 40.7888 43.9799 40.2775 43.9799Z" fill="#3E5798"/>
<path id="Vector_6" d="M26.852 40.2776H23.1483C22.6369 40.2776 22.2223 39.863 22.2223 39.3516V36.1109H18.9816C18.4702 36.1109 18.0557 35.6964 18.0557 35.185V31.4813C18.0557 30.9699 18.4702 30.5553 18.9816 30.5553H22.2223V27.3146C22.2223 26.8032 22.6369 26.3887 23.1483 26.3887H26.852C27.3633 26.3887 27.7779 26.8032 27.7779 27.3146V30.5553H31.0186C31.5299 30.5553 31.9446 30.9699 31.9446 31.4813V35.185C31.9446 35.6964 31.5299 36.1109 31.0186 36.1109H27.7779V39.3516C27.7779 39.863 27.3633 40.2776 26.852 40.2776ZM24.0742 38.4257H25.926V35.185C25.926 34.6736 26.3407 34.259 26.852 34.259H30.0927V32.4072H26.852C26.3407 32.4072 25.926 31.9927 25.926 31.4813V28.2405H24.0742V31.4813C24.0742 31.9927 23.6596 32.4072 23.1483 32.4072H19.9075V34.259H23.1483C23.6596 34.259 24.0742 34.6736 24.0742 35.185V38.4257Z" fill="#3E5798"/>
</g>
</g>
</g>
</svg>
