<svg width="50" height="50" viewBox="0 0 50 50" fill="none" xmlns="http://www.w3.org/2000/svg">
<g id="noun-plaster-5760409 1">
<g id="Group">
<g id="Group_2">
<path id="Vector" d="M39.8059 48.5956C37.5533 48.5956 35.3007 47.7383 33.5857 46.0237L24.6735 37.1116C24.312 36.75 24.312 36.1637 24.6735 35.8021C25.0351 35.4406 25.6214 35.4406 25.9831 35.8021L34.8951 44.7141C37.6032 47.4213 42.0089 47.4215 44.7161 44.7141C47.4233 42.0069 47.4233 37.601 44.716 34.893L35.8041 25.981C35.4424 25.6195 35.4424 25.0332 35.8041 24.6715C36.1656 24.31 36.752 24.31 37.1135 24.6715L46.0256 33.5835C49.4547 37.0138 49.4547 42.5943 46.0256 46.0236C44.3109 47.7383 42.0585 48.5955 39.8059 48.5956Z" fill="#3E5798"/>
<path id="Vector_2" d="M13.5429 25.5969C13.3059 25.5969 13.0689 25.5065 12.8882 25.3257L3.9752 16.4128C0.546029 12.9825 0.546029 7.40203 3.9752 3.97268C7.40492 0.54296 12.9856 0.54296 16.4153 3.97268L25.3283 12.8856C25.6898 13.2472 25.6898 13.8335 25.3283 14.1952C24.9667 14.5567 24.3803 14.5567 24.0188 14.1952L15.1058 5.28222C12.3982 2.57444 7.99232 2.57444 5.28473 5.28222C2.57751 7.98944 2.57751 12.3953 5.28482 15.1033L14.1977 24.0162C14.5593 24.3778 14.5593 24.9641 14.1977 25.3257C14.0168 25.5065 13.7798 25.5969 13.5429 25.5969Z" fill="#3E5798"/>
<path id="Vector_3" d="M10.5225 48.7354C8.04922 48.7354 5.72404 47.7723 3.97515 46.0234C0.365055 42.4133 0.365055 36.539 3.97515 32.9288L32.9307 3.97326C36.5409 0.363079 42.4151 0.363079 46.0253 3.97326C49.6354 7.58345 49.6354 13.4577 46.0253 17.0679L17.0698 46.0234C15.3209 47.7723 12.9957 48.7354 10.5225 48.7354ZM39.478 3.1166C37.5809 3.1166 35.6844 3.83854 34.2401 5.2828L5.28459 34.2384C2.39644 37.1264 2.39644 41.8259 5.28459 44.714C6.68367 46.1131 8.54376 46.8836 10.5224 46.8836C12.501 46.8836 14.3611 46.1132 15.7602 44.714L44.7158 15.7584C47.6039 12.8703 47.6039 8.17086 44.7158 5.28271C43.272 3.83873 41.3747 3.1166 39.478 3.1166Z" fill="#3E5798"/>
<path id="Vector_4" d="M34.4933 9.8831C35.0047 9.8831 35.4192 9.46855 35.4192 8.95718C35.4192 8.4458 35.0047 8.03125 34.4933 8.03125C33.9819 8.03125 33.5674 8.4458 33.5674 8.95718C33.5674 9.46855 33.9819 9.8831 34.4933 9.8831Z" fill="#3E5798"/>
<path id="Vector_5" d="M31.8751 12.5022C32.3865 12.5022 32.8011 12.0877 32.8011 11.5763C32.8011 11.0649 32.3865 10.6504 31.8751 10.6504C31.3638 10.6504 30.9492 11.0649 30.9492 11.5763C30.9492 12.0877 31.3638 12.5022 31.8751 12.5022Z" fill="#3E5798"/>
<path id="Vector_6" d="M29.256 15.1214C29.7674 15.1214 30.1819 14.7068 30.1819 14.1955C30.1819 13.6841 29.7674 13.2695 29.256 13.2695C28.7446 13.2695 28.3301 13.6841 28.3301 14.1955C28.3301 14.7068 28.7446 15.1214 29.256 15.1214Z" fill="#3E5798"/>
<path id="Vector_7" d="M37.7677 13.1565C38.2791 13.1565 38.6936 12.742 38.6936 12.2306C38.6936 11.7192 38.2791 11.3047 37.7677 11.3047C37.2563 11.3047 36.8418 11.7192 36.8418 12.2306C36.8418 12.742 37.2563 13.1565 37.7677 13.1565Z" fill="#3E5798"/>
<path id="Vector_8" d="M35.1486 15.7757C35.66 15.7757 36.0745 15.3611 36.0745 14.8498C36.0745 14.3384 35.66 13.9238 35.1486 13.9238C34.6372 13.9238 34.2227 14.3384 34.2227 14.8498C34.2227 15.3611 34.6372 15.7757 35.1486 15.7757Z" fill="#3E5798"/>
<path id="Vector_9" d="M32.5294 18.3948C33.0408 18.3948 33.4554 17.9803 33.4554 17.4689C33.4554 16.9575 33.0408 16.543 32.5294 16.543C32.0181 16.543 31.6035 16.9575 31.6035 17.4689C31.6035 17.9803 32.0181 18.3948 32.5294 18.3948Z" fill="#3E5798"/>
<path id="Vector_10" d="M41.0412 16.4319C41.5525 16.4319 41.9671 16.0174 41.9671 15.506C41.9671 14.9946 41.5525 14.5801 41.0412 14.5801C40.5298 14.5801 40.1152 14.9946 40.1152 15.506C40.1152 16.0174 40.5298 16.4319 41.0412 16.4319Z" fill="#3E5798"/>
<path id="Vector_11" d="M38.423 19.0491C38.9344 19.0491 39.3489 18.6346 39.3489 18.1232C39.3489 17.6118 38.9344 17.1973 38.423 17.1973C37.9116 17.1973 37.4971 17.6118 37.4971 18.1232C37.4971 18.6346 37.9116 19.0491 38.423 19.0491Z" fill="#3E5798"/>
<path id="Vector_12" d="M35.8039 21.6683C36.3152 21.6683 36.7298 21.2537 36.7298 20.7423C36.7298 20.231 36.3152 19.8164 35.8039 19.8164C35.2925 19.8164 34.8779 20.231 34.8779 20.7423C34.8779 21.2537 35.2925 21.6683 35.8039 21.6683Z" fill="#3E5798"/>
<path id="Vector_13" d="M13.5431 30.8343C14.0545 30.8343 14.469 30.4197 14.469 29.9083C14.469 29.397 14.0545 28.9824 13.5431 28.9824C13.0317 28.9824 12.6172 29.397 12.6172 29.9083C12.6172 30.4197 13.0317 30.8343 13.5431 30.8343Z" fill="#3E5798"/>
<path id="Vector_14" d="M24.2892 19.9769C24.8006 19.9769 25.2151 19.5623 25.2151 19.0509C25.2151 18.5396 24.8006 18.125 24.2892 18.125C23.7778 18.125 23.3633 18.5396 23.3633 19.0509C23.3633 19.5623 23.7778 19.9769 24.2892 19.9769Z" fill="#3E5798"/>
<path id="Vector_15" d="M10.924 33.4534C11.4353 33.4534 11.8499 33.0389 11.8499 32.5275C11.8499 32.0161 11.4353 31.6016 10.924 31.6016C10.4126 31.6016 9.99805 32.0161 9.99805 32.5275C9.99805 33.0389 10.4126 33.4534 10.924 33.4534Z" fill="#3E5798"/>
<path id="Vector_16" d="M21.671 22.596C22.1824 22.596 22.597 22.1814 22.597 21.6701C22.597 21.1587 22.1824 20.7441 21.671 20.7441C21.1597 20.7441 20.7451 21.1587 20.7451 21.6701C20.7451 22.1814 21.1597 22.596 21.671 22.596Z" fill="#3E5798"/>
<path id="Vector_17" d="M8.30483 36.0726C8.81621 36.0726 9.23076 35.658 9.23076 35.1466C9.23076 34.6353 8.81621 34.2207 8.30483 34.2207C7.79346 34.2207 7.37891 34.6353 7.37891 35.1466C7.37891 35.658 7.79346 36.0726 8.30483 36.0726Z" fill="#3E5798"/>
<path id="Vector_18" d="M19.0509 25.2151C19.5623 25.2151 19.9769 24.8006 19.9769 24.2892C19.9769 23.7778 19.5623 23.3633 19.0509 23.3633C18.5396 23.3633 18.125 23.7778 18.125 24.2892C18.125 24.8006 18.5396 25.2151 19.0509 25.2151Z" fill="#3E5798"/>
<path id="Vector_19" d="M16.8166 34.1097C17.3279 34.1097 17.7425 33.6951 17.7425 33.1837C17.7425 32.6724 17.3279 32.2578 16.8166 32.2578C16.3052 32.2578 15.8906 32.6724 15.8906 33.1837C15.8906 33.6951 16.3052 34.1097 16.8166 34.1097Z" fill="#3E5798"/>
<path id="Vector_20" d="M27.5626 23.2522C28.074 23.2522 28.4886 22.8377 28.4886 22.3263C28.4886 21.8149 28.074 21.4004 27.5626 21.4004C27.0513 21.4004 26.6367 21.8149 26.6367 22.3263C26.6367 22.8377 27.0513 23.2522 27.5626 23.2522Z" fill="#3E5798"/>
<path id="Vector_21" d="M14.1974 36.7269C14.7088 36.7269 15.1233 36.3123 15.1233 35.8009C15.1233 35.2896 14.7088 34.875 14.1974 34.875C13.686 34.875 13.2715 35.2896 13.2715 35.8009C13.2715 36.3123 13.686 36.7269 14.1974 36.7269Z" fill="#3E5798"/>
<path id="Vector_22" d="M24.9445 25.8694C25.4559 25.8694 25.8704 25.4549 25.8704 24.9435C25.8704 24.4321 25.4559 24.0176 24.9445 24.0176C24.4331 24.0176 24.0186 24.4321 24.0186 24.9435C24.0186 25.4549 24.4331 25.8694 24.9445 25.8694Z" fill="#3E5798"/>
<path id="Vector_23" d="M11.5783 39.346C12.0896 39.346 12.5042 38.9314 12.5042 38.4201C12.5042 37.9087 12.0896 37.4941 11.5783 37.4941C11.0669 37.4941 10.6523 37.9087 10.6523 38.4201C10.6523 38.9314 11.0669 39.346 11.5783 39.346Z" fill="#3E5798"/>
<path id="Vector_24" d="M22.3244 28.4886C22.8357 28.4886 23.2503 28.074 23.2503 27.5626C23.2503 27.0513 22.8357 26.6367 22.3244 26.6367C21.813 26.6367 21.3984 27.0513 21.3984 27.5626C21.3984 28.074 21.813 28.4886 22.3244 28.4886Z" fill="#3E5798"/>
<path id="Vector_25" d="M20.09 37.3831C20.6014 37.3831 21.0159 36.9686 21.0159 36.4572C21.0159 35.9458 20.6014 35.5312 20.09 35.5312C19.5786 35.5312 19.1641 35.9458 19.1641 36.4572C19.1641 36.9686 19.5786 37.3831 20.09 37.3831Z" fill="#3E5798"/>
<path id="Vector_26" d="M30.8371 26.5257C31.3484 26.5257 31.763 26.1111 31.763 25.5998C31.763 25.0884 31.3484 24.6738 30.8371 24.6738C30.3257 24.6738 29.9111 25.0884 29.9111 25.5998C29.9111 26.1111 30.3257 26.5257 30.8371 26.5257Z" fill="#3E5798"/>
<path id="Vector_27" d="M17.4718 40.0003C17.9832 40.0003 18.3978 39.5857 18.3978 39.0744C18.3978 38.563 17.9832 38.1484 17.4718 38.1484C16.9604 38.1484 16.5459 38.563 16.5459 39.0744C16.5459 39.5857 16.9604 40.0003 17.4718 40.0003Z" fill="#3E5798"/>
<path id="Vector_28" d="M28.2179 29.1448C28.7293 29.1448 29.1438 28.7303 29.1438 28.2189C29.1438 27.7075 28.7293 27.293 28.2179 27.293C27.7065 27.293 27.292 27.7075 27.292 28.2189C27.292 28.7303 27.7065 29.1448 28.2179 29.1448Z" fill="#3E5798"/>
<path id="Vector_29" d="M14.8517 42.6194C15.3631 42.6194 15.7776 42.2049 15.7776 41.6935C15.7776 41.1821 15.3631 40.7676 14.8517 40.7676C14.3403 40.7676 13.9258 41.1821 13.9258 41.6935C13.9258 42.2049 14.3403 42.6194 14.8517 42.6194Z" fill="#3E5798"/>
<path id="Vector_30" d="M25.5988 31.762C26.1102 31.762 26.5247 31.3475 26.5247 30.8361C26.5247 30.3247 26.1102 29.9102 25.5988 29.9102C25.0874 29.9102 24.6729 30.3247 24.6729 30.8361C24.6729 31.3475 25.0874 31.762 25.5988 31.762Z" fill="#3E5798"/>
</g>
</g>
</g>
</svg>
