<svg width="50" height="50" viewBox="0 0 50 50" fill="none" xmlns="http://www.w3.org/2000/svg">
<g id="noun-gym-bars-5760387 1">
<g id="Group">
<g id="Group_2">
<path id="Vector" d="M29.1667 32.8702H25.463C24.9516 32.8702 24.5371 32.4556 24.5371 31.9442V4.16645C24.5371 2.63478 25.7832 1.38867 27.3149 1.38867C28.8466 1.38867 30.0927 2.63478 30.0927 4.16645V31.9442C30.0927 32.4556 29.6781 32.8702 29.1667 32.8702ZM26.389 31.0183H28.2408V4.16645C28.2408 3.65589 27.8254 3.24052 27.3149 3.24052C26.8043 3.24052 26.389 3.65589 26.389 4.16645V31.0183Z" fill="#3E5798"/>
<path id="Vector_2" d="M31.0179 48.6102H23.6105C23.0991 48.6102 22.6846 48.1956 22.6846 47.6842V31.9435C22.6846 31.4321 23.0991 31.0176 23.6105 31.0176H31.0179C31.5293 31.0176 31.9438 31.4321 31.9438 31.9435V47.6842C31.9438 48.1956 31.5293 48.6102 31.0179 48.6102ZM24.5364 46.7583H30.092V32.8694H24.5364V46.7583Z" fill="#3E5798"/>
<path id="Vector_3" d="M45.8328 36.573H42.1291C41.6177 36.573 41.2031 36.1585 41.2031 35.6471V9.72114C41.2031 8.18947 42.4492 6.94336 43.9809 6.94336C45.5126 6.94336 46.7587 8.18947 46.7587 9.72114V35.6471C46.7587 36.1585 46.3441 36.573 45.8328 36.573ZM43.055 34.7211H44.9068V9.72114C44.9068 9.21058 44.4915 8.79521 43.9809 8.79521C43.4703 8.79521 43.055 9.21058 43.055 9.72114V34.7211Z" fill="#3E5798"/>
<path id="Vector_4" d="M47.6849 48.6115H40.2775C39.7661 48.6115 39.3516 48.197 39.3516 47.6856V35.6486C39.3516 35.1372 39.7661 34.7227 40.2775 34.7227H47.6849C48.1963 34.7227 48.6108 35.1372 48.6108 35.6486V47.6856C48.6108 48.197 48.1963 48.6115 47.6849 48.6115ZM41.2034 46.7597H46.759V36.5745H41.2034V46.7597Z" fill="#3E5798"/>
<path id="Vector_5" d="M7.86986 32.8702H4.16616C3.65477 32.8702 3.24023 32.4556 3.24023 31.9442V4.16645C3.24023 2.63478 4.48635 1.38867 6.01801 1.38867C7.54968 1.38867 8.79579 2.63478 8.79579 4.16645V31.9442C8.79579 32.4556 8.38125 32.8702 7.86986 32.8702ZM5.09209 31.0183H6.94394V4.16645C6.94394 3.65589 6.52857 3.24052 6.01801 3.24052C5.50746 3.24052 5.09209 3.65589 5.09209 4.16645V31.0183Z" fill="#3E5798"/>
<path id="Vector_6" d="M9.722 48.6102H2.3146C1.80321 48.6102 1.38867 48.1956 1.38867 47.6842V31.9435C1.38867 31.4321 1.80321 31.0176 2.3146 31.0176H9.722C10.2334 31.0176 10.6479 31.4321 10.6479 31.9435V47.6842C10.6479 48.1956 10.2334 48.6102 9.722 48.6102ZM3.24052 46.7583H8.79608V32.8694H3.24052V46.7583Z" fill="#3E5798"/>
<path id="Vector_7" d="M25.4629 10.6474H7.87026C7.35887 10.6474 6.94434 10.2328 6.94434 9.72143V6.01772C6.94434 5.50633 7.35887 5.0918 7.87026 5.0918H25.4629C25.9742 5.0918 26.3888 5.50633 26.3888 6.01772V9.72143C26.3888 10.2328 25.9742 10.6474 25.4629 10.6474ZM8.79619 8.7955H24.5369V6.94365H8.79619V8.7955Z" fill="#3E5798"/>
<path id="Vector_8" d="M42.1291 15.2782H29.1662C28.6548 15.2782 28.2402 14.8637 28.2402 14.3523V10.6486C28.2402 10.1372 28.6548 9.72266 29.1662 9.72266H42.1291C42.6405 9.72266 43.055 10.1372 43.055 10.6486V14.3523C43.055 14.8637 42.6405 15.2782 42.1291 15.2782ZM30.0921 13.4264H41.2032V11.5745H30.0921V13.4264Z" fill="#3E5798"/>
</g>
</g>
</g>
</svg>
