<svg width="100" height="100" viewBox="0 0 100 100" fill="none" xmlns="http://www.w3.org/2000/svg">
<g id="noun-standard-5188131 1">
<g id="Group">
<g id="Group_2">
<g id="Group_3">
<path id="Vector" d="M58.206 76H44.588C43.5118 76 42.6395 75.1044 42.6395 74C42.6395 72.8956 43.5118 72 44.588 72H58.2062C60.355 72 62.1032 70.2056 62.1032 68C62.1032 65.7944 60.355 64 58.2062 64H30.9485C29.8723 64 29 63.1044 29 62C29 60.8956 29.8723 60 30.9485 60H58.206C62.5036 60 66 63.5888 66 68C66 72.4112 62.5038 76 58.206 76Z" fill="#3E5798"/>
</g>
<g id="Group_4">
<path id="Vector_2" d="M59.8308 92H20.95C19.873 92 19 91.1136 19 90.0205V68.2456C19 67.5399 19.3701 66.8874 19.9717 66.5333L29.7219 60.7926C30.6536 60.2439 31.8468 60.566 32.3869 61.5118C32.9273 62.4576 32.61 63.6691 31.6785 64.2174L22.9 69.386V88.0409H59.1506L91.6833 61.8154C92.6143 61.0595 93.132 59.9254 93.0985 58.7086C93.0651 57.4917 92.4856 56.3888 91.5088 55.6827C90.1421 54.6945 88.3297 54.7283 86.9998 55.7674L62.6778 74.7636C61.8244 75.4301 60.5998 75.2684 59.9433 74.4017C59.2865 73.5353 59.4462 72.2925 60.2997 71.6258L84.6216 52.6296C87.3204 50.5218 90.9973 50.4525 93.7712 52.458C95.7532 53.891 96.929 56.129 96.9969 58.5983C97.0649 61.0676 96.0141 63.3688 94.114 64.9118L61.0435 91.5706C60.6985 91.8486 60.2711 92 59.8308 92Z" fill="#3E5798"/>
</g>
<g id="Group_5">
<path id="Vector_3" d="M59.4129 64.2556C58.7426 63.4209 58.9056 62.2235 59.7767 61.5812L74.7109 50.5701C77.4652 48.539 81.2179 48.4728 84.0486 50.4047C85.3633 51.3021 86.3434 52.5396 86.883 53.9837C87.2535 54.9754 86.715 56.0671 85.6803 56.4222C84.6453 56.7769 83.5063 56.261 83.1358 55.2695C82.8717 54.5625 82.3889 53.9545 81.7397 53.5117C80.3447 52.5592 78.4952 52.5924 77.138 53.5931L62.2036 64.6042C61.3359 65.2443 60.0856 65.0938 59.4129 64.2556Z" fill="#3E5798"/>
</g>
<g id="Group_6">
<path id="Vector_4" d="M14.4001 97H5.00002C3.89541 97 3 96.1257 3 95.0476V57.9524C3 56.8743 3.89541 56 5.00002 56H14.4001C19.1422 56 23 59.7661 23 64.3952V88.6048C23 93.2339 19.1422 97 14.4001 97ZM7.00004 93.0952H14.4001C16.9365 93.0952 19 91.081 19 88.6048V64.3952C19 61.919 16.9365 59.9048 14.4001 59.9048H7.00004V93.0952Z" fill="#3E5798"/>
</g>
</g>
</g>
<g id="Group_7">
<path id="Vector_5" d="M50.8837 47H41.1181C40.0394 47 39.1649 46.1256 39.1649 45.0469V41.8619C37.1427 41.1045 35.2468 40.0084 33.5749 38.6301L30.8128 40.2248C29.8786 40.7641 28.6839 40.4439 28.1448 39.51L23.262 31.0527C22.7226 30.1186 23.0429 28.924 23.9769 28.3848L26.7366 26.7912C26.5593 25.7262 26.4696 24.6453 26.4696 23.5625C26.4696 22.4797 26.5593 21.3988 26.7368 20.3338L23.9771 18.7402C23.0429 18.201 22.7228 17.0064 23.2622 16.0723L28.145 7.61504C28.6843 6.68086 29.8786 6.36094 30.813 6.9002L33.5751 8.49492C35.2472 7.11641 37.1431 6.02051 39.1651 5.26309V2.07812C39.1651 0.999414 40.0396 0.125 41.1183 0.125H50.8839C51.9626 0.125 52.837 0.999414 52.837 2.07812V5.26309C54.8591 6.02051 56.755 7.1166 58.4271 8.49492L61.1892 6.9002C62.1233 6.36074 63.3179 6.68086 63.8571 7.61504L68.74 16.0723C69.2794 17.0064 68.9591 18.201 68.0251 18.7402L65.2653 20.3338C65.4425 21.3988 65.5321 22.4797 65.5321 23.5625C65.5321 24.6453 65.4425 25.7262 65.2649 26.7912L68.0247 28.3848C68.9589 28.924 69.279 30.1186 68.7396 31.0527L63.8567 39.51C63.3173 40.4441 62.123 40.7639 61.1888 40.2248L58.4267 38.6301C56.7546 40.0086 54.8587 41.1045 52.8366 41.8619V45.0469C52.8368 46.1256 51.9624 47 50.8837 47ZM43.0712 43.0938H48.9306V40.4529C48.9306 39.5828 49.5062 38.8178 50.3421 38.5764C52.7603 37.8785 55.0034 36.5816 56.829 34.8262C57.456 34.2232 58.406 34.1076 59.1593 34.5426L61.4505 35.8652L64.3802 30.791L62.0921 29.4699C61.3394 29.0354 60.9644 28.1557 61.1722 27.3115C61.4733 26.0891 61.6259 24.8275 61.6259 23.5625C61.6259 22.2975 61.4734 21.0359 61.1724 19.8135C60.9646 18.9695 61.3396 18.0896 62.0923 17.6551L64.3804 16.334L61.4507 11.2598L59.1595 12.5824C58.4062 13.0172 57.4562 12.9018 56.8292 12.2988C55.0034 10.5434 52.7605 9.24648 50.3423 8.54863C49.5064 8.30742 48.9308 7.54219 48.9308 6.67207V4.03125H43.0714V6.67207C43.0714 7.54219 42.4958 8.30742 41.6599 8.54863C39.2417 9.24648 36.9983 10.5434 35.173 12.2988C34.546 12.9018 33.596 13.0174 32.8427 12.5824L30.5515 11.2598L27.6218 16.334L29.9099 17.6551C30.6626 18.0896 31.0376 18.9693 30.8298 19.8135C30.5284 21.0359 30.3759 22.2975 30.3759 23.5625C30.3759 24.8275 30.5284 26.0891 30.8294 27.3115C31.0372 28.1555 30.6622 29.0354 29.9095 29.4699L27.6214 30.791L30.5511 35.8652L32.8423 34.5426C33.5954 34.1074 34.5458 34.2232 35.1726 34.8262C36.9982 36.5816 39.2413 37.8783 41.6595 38.5764C42.4954 38.8176 43.071 39.5828 43.071 40.4529V43.0938H43.0712Z" fill="#3E5798"/>
<path id="Vector_6" d="M45.7656 33.5312C40.3809 33.5312 36 29.1504 36 23.7656C36 18.3809 40.3809 14 45.7656 14C51.1504 14 55.5312 18.3809 55.5312 23.7656C55.5312 29.1504 51.1504 33.5312 45.7656 33.5312ZM45.7656 17.9062C42.5348 17.9062 39.9062 20.5348 39.9062 23.7656C39.9062 26.9965 42.5348 29.625 45.7656 29.625C48.9965 29.625 51.625 26.9965 51.625 23.7656C51.625 20.5348 48.9965 17.9062 45.7656 17.9062Z" fill="#3E5798"/>
</g>
</g>
</svg>
