<svg width="50" height="50" viewBox="0 0 50 50" fill="none" xmlns="http://www.w3.org/2000/svg">
<g id="noun-leg-5760370 1">
<g id="Group">
<g id="Group_2">
<path id="Vector" d="M27.9526 45.3696C25.5624 45.3696 23.613 43.4251 23.6072 41.0349C23.6152 40.985 23.4827 38.7501 25.0185 36.7037C25.0687 36.609 26.3943 34.3543 26.4035 32.6997C26.4036 32.671 26.4035 32.6262 26.4035 32.6262C26.3963 30.1774 25.9878 27.7979 25.1896 25.5563C24.1305 22.5813 24.2357 19.4626 25.4783 16.4257C17.9954 18.904 10.2371 20.4569 2.38395 21.0458C1.84469 21.0857 1.38867 20.6591 1.38867 20.1224V5.55483C1.38867 5.04344 1.80321 4.62891 2.3146 4.62891H28.1368C33.4381 4.62891 37.9083 9.00557 37.4431 14.611L36.0329 32.2557C35.8486 34.5619 37.4156 36.6666 39.6778 37.1514L45.8553 38.4751C47.452 38.8172 48.6109 40.2508 48.6109 41.8837C48.6109 43.7827 47.0848 45.3319 45.1946 45.3691C45.1604 45.3702 45.943 45.3694 27.9526 45.3696ZM28.0286 14.2245C28.2769 14.5252 28.3102 14.9493 28.1117 15.285C26.2017 18.5179 25.8054 21.7646 26.9341 24.935C29.0379 30.8424 28.6127 33.8119 26.5028 37.8108C25.3898 39.294 25.4621 41.0129 25.459 41.0325C25.4624 42.4019 26.581 43.5177 27.9526 43.5177H45.1249C46.0259 43.5177 46.759 42.7846 46.759 41.8835C46.759 41.1181 46.2158 40.4461 45.4673 40.2857L39.2898 38.962C36.1227 38.2833 33.9289 35.3368 34.1869 32.108C35.6604 13.6708 35.595 14.4865 35.5974 14.4603C35.9705 9.97844 32.4297 6.48076 28.1368 6.48076H3.24052V19.1192C11.342 18.4252 19.331 16.6851 27.0028 13.9422C27.3686 13.8115 27.7791 13.9224 28.0286 14.2245Z" fill="#3E5798"/>
<path id="Vector_2" d="M35.0967 33.3323H27.3273C26.8159 33.3323 26.4014 32.9178 26.4014 32.4064C26.4014 31.895 26.8159 31.4805 27.3273 31.4805H35.0967C35.6081 31.4805 36.0227 31.895 36.0227 32.4064C36.0227 32.9178 35.6081 33.3323 35.0967 33.3323Z" fill="#3E5798"/>
<path id="Vector_3" d="M35.4326 35.9551L26.1073 39.3626C25.4935 39.5869 24.8536 39.3793 24.6781 38.899C24.5026 38.4187 24.8579 37.8475 25.4717 37.6232L34.797 34.2157C35.4108 33.9915 36.0506 34.199 36.2262 34.6793C36.4017 35.1597 36.0464 35.7308 35.4326 35.9551Z" fill="#3E5798"/>
<path id="Vector_4" d="M34.2492 31.2002L26.3435 27.4822C25.8231 27.2374 25.5778 26.6639 25.7954 26.2012C26.013 25.7384 26.6113 25.5617 27.1316 25.8064L35.0373 29.5244C35.5577 29.7692 35.8031 30.3427 35.5854 30.8054C35.3678 31.2682 34.7696 31.4449 34.2492 31.2002Z" fill="#3E5798"/>
<path id="Vector_5" d="M35.0304 26.4483L26.3991 26.1447C25.831 26.1247 25.385 25.6942 25.403 25.1832C25.421 24.6721 25.8961 24.274 26.4642 24.294L35.0955 24.5976C35.6636 24.6175 36.1095 25.048 36.0916 25.5591C36.0736 26.0702 35.5985 26.4683 35.0304 26.4483Z" fill="#3E5798"/>
<path id="Vector_6" d="M32.704 44.8434L25.3239 40.3573C24.8381 40.062 24.6597 39.4684 24.9253 39.0315C25.1909 38.5945 25.8 38.4796 26.2858 38.7749L33.6659 43.2609C34.1517 43.5562 34.3301 44.1498 34.0645 44.5868C33.7989 45.0238 33.1898 45.1387 32.704 44.8434Z" fill="#3E5798"/>
<path id="Vector_7" d="M26.8118 38.4163L36.7138 37.2989C37.3656 37.2253 37.9404 37.5776 37.9977 38.0858C38.0551 38.5939 37.5732 39.0655 36.9215 39.139L27.0194 40.2565C26.3677 40.33 25.7929 39.9777 25.7355 39.4695C25.6782 38.9614 26.16 38.4898 26.8118 38.4163Z" fill="#3E5798"/>
<path id="Vector_8" d="M38.8643 38.8556L33.7891 44.1159C33.455 44.4622 32.8859 44.455 32.5179 44.0999C32.1499 43.7449 32.1224 43.1764 32.4564 42.8301L37.5316 37.5698C37.8657 37.2235 38.4348 37.2307 38.8028 37.5858C39.1709 37.9409 39.1984 38.5093 38.8643 38.8556Z" fill="#3E5798"/>
<path id="Vector_9" d="M43.587 39.504L38.5118 44.7644C38.1777 45.1106 37.6086 45.1034 37.2406 44.7484C36.8725 44.3933 36.845 43.8248 37.1791 43.4786L42.2543 38.2182C42.5883 37.872 43.1575 37.8791 43.5255 38.2342C43.8935 38.5893 43.921 39.1578 43.587 39.504Z" fill="#3E5798"/>
<path id="Vector_10" d="M46.7808 41.7285L40.9442 45.0717C40.56 45.2918 40.0425 45.1105 39.7883 44.6667C39.5342 44.223 39.6395 43.6849 40.0237 43.4648L45.8604 40.1216C46.2446 39.9015 46.762 40.0828 47.0162 40.5266C47.2704 40.9703 47.165 41.5084 46.7808 41.7285Z" fill="#3E5798"/>
</g>
</g>
</g>
</svg>
