<svg width="50" height="50" viewBox="0 0 50 50" fill="none" xmlns="http://www.w3.org/2000/svg">
<g id="noun-electrode-5760405 (1) 1">
<g id="Group">
<g id="Group_2">
<path id="Vector" d="M27.6417 32.5532C27.4573 32.0764 27.6945 31.5402 28.1714 31.3557C31.5362 30.055 33.797 26.7566 33.797 23.1481C33.797 18.2979 29.851 14.3519 25.0007 14.3519C20.1504 14.3519 16.2044 18.2979 16.2044 23.1481C16.2044 26.7566 18.4651 30.055 21.8299 31.3558C22.3069 31.5402 22.5441 32.0764 22.3597 32.5533C22.1753 33.0303 21.6393 33.2675 21.1622 33.0831C17.124 31.522 14.3525 27.6221 14.3525 23.1481C14.3525 17.2768 19.1293 12.5 25.0007 12.5C30.8721 12.5 35.6488 17.2768 35.6488 23.1481C35.6488 27.6173 32.8815 31.5204 28.8392 33.0831C28.3611 33.2678 27.8258 33.0294 27.6417 32.5532Z" fill="#3E5798"/>
<path id="Vector_2" d="M25.9332 38.4237C25.8719 37.916 26.2338 37.4547 26.7414 37.3935C33.9309 36.5259 39.3524 30.4012 39.3524 23.1471C39.3524 15.2335 32.9142 8.79521 25.0006 8.79521C17.087 8.79521 10.6487 15.2335 10.6487 23.1471C10.6487 30.4012 16.0702 36.5259 23.2597 37.3935C23.7673 37.4547 24.1293 37.916 24.0679 38.4237C24.0067 38.9314 23.5459 39.2948 23.0377 39.232C14.9192 38.2522 8.79688 31.3372 8.79688 23.1471C8.79688 14.2123 16.0659 6.94336 25.0006 6.94336C33.9353 6.94336 41.2043 14.2123 41.2043 23.1471C41.2043 31.3372 35.082 38.2522 26.9634 39.2321C26.4527 39.2934 25.9941 38.929 25.9332 38.4237Z" fill="#3E5798"/>
<path id="Vector_3" d="M25.93 43.981C25.8852 43.4716 26.2618 43.0223 26.7711 42.9775C36.9412 42.0815 44.9079 33.3715 44.9079 23.1479C44.9079 12.1709 35.9774 3.24052 25.0005 3.24052C14.0235 3.24052 5.09306 12.1709 5.09306 23.1479C5.09306 33.3715 13.0597 42.0815 23.2298 42.9775C23.7392 43.0223 24.1157 43.4716 24.0709 43.981C24.026 44.4903 23.5766 44.8655 23.0673 44.8222C11.9112 43.8395 3.24121 34.4699 3.24121 23.1479C3.24121 11.1227 12.9735 1.38867 25.0005 1.38867C37.0257 1.38867 46.7597 11.121 46.7597 23.1479C46.7597 34.4814 38.0783 43.8405 26.9335 44.8222C26.4139 44.8665 25.9741 44.4821 25.93 43.981Z" fill="#3E5798"/>
<path id="Vector_4" d="M25.0007 35.6473C22.4479 35.6473 20.3711 33.5704 20.3711 31.0176V22.6843C20.3711 20.1315 22.4479 18.0547 25.0007 18.0547C27.5535 18.0547 29.6304 20.1315 29.6304 22.6843V31.0176C29.6304 33.5704 27.5535 35.6473 25.0007 35.6473ZM25.0007 19.9065C23.4691 19.9065 22.2229 21.1527 22.2229 22.6843V31.0176C22.2229 32.5493 23.4691 33.7954 25.0007 33.7954C26.5324 33.7954 27.7785 32.5493 27.7785 31.0176V22.6843C27.7785 21.1527 26.5324 19.9065 25.0007 19.9065Z" fill="#3E5798"/>
<path id="Vector_5" d="M25.0004 48.611C23.4688 48.611 22.2227 47.3649 22.2227 45.8332V34.2267C22.2227 33.7154 22.6372 33.3008 23.1486 33.3008C23.66 33.3008 24.0745 33.7154 24.0745 34.2267V45.8332C24.0745 46.3437 24.4899 46.7591 25.0004 46.7591C25.511 46.7591 25.9264 46.3437 25.9264 45.8332V34.2267C25.9264 33.7154 26.3409 33.3008 26.8523 33.3008C27.3637 33.3008 27.7782 33.7154 27.7782 34.2267V45.8332C27.7782 47.3649 26.5321 48.611 25.0004 48.611Z" fill="#3E5798"/>
</g>
</g>
</g>
</svg>
