<svg width="50" height="50" viewBox="0 0 50 50" fill="none" xmlns="http://www.w3.org/2000/svg">
<g id="noun-hospital-5760378 1">
<g id="Group">
<g id="Group_2">
<path id="Vector" d="M38.4252 48.6109H11.5734C11.062 48.6109 10.6475 48.1964 10.6475 47.685V11.5739C10.6475 11.0625 11.062 10.6479 11.5734 10.6479C12.0848 10.6479 12.4993 11.0625 12.4993 11.5739V46.7591H37.4993V11.5739C37.4993 11.0625 37.9139 10.6479 38.4252 10.6479C38.9365 10.6479 39.3512 11.0625 39.3512 11.5739V47.685C39.3512 48.1964 38.9365 48.6109 38.4252 48.6109Z" fill="#3E5798"/>
<path id="Vector_2" d="M18.4505 12.4999H11.5737C10.042 12.4999 8.7959 11.2538 8.7959 9.72211C8.7959 8.19045 10.042 6.94434 11.5737 6.94434H18.194C18.7054 6.94434 19.12 7.35887 19.12 7.87026C19.12 8.38165 18.7054 8.79619 18.194 8.79619H11.5737C11.0631 8.79619 10.6478 9.21156 10.6478 9.72211C10.6478 10.2327 11.0631 10.648 11.5737 10.648H18.4505C18.9619 10.648 19.3765 11.0626 19.3765 11.574C19.3765 12.0854 18.9619 12.4999 18.4505 12.4999Z" fill="#3E5798"/>
<path id="Vector_3" d="M38.4258 12.4999H31.549C31.0377 12.4999 30.623 12.0854 30.623 11.574C30.623 11.0626 31.0377 10.648 31.549 10.648H38.4258C38.9364 10.648 39.3518 10.2327 39.3518 9.72211C39.3518 9.21156 38.9364 8.79619 38.4258 8.79619H31.8055C31.2942 8.79619 30.8795 8.38165 30.8795 7.87026C30.8795 7.35887 31.2942 6.94434 31.8055 6.94434H38.4258C39.9575 6.94434 41.2036 8.19045 41.2036 9.72211C41.2036 11.2538 39.9575 12.4999 38.4258 12.4999Z" fill="#3E5798"/>
<path id="Vector_4" d="M11.5739 48.6109H2.3146C1.80321 48.6109 1.38867 48.1964 1.38867 47.685V20.8332C1.38867 20.531 1.53608 20.2479 1.78358 20.0746L11.0428 13.5932C11.3257 13.3952 11.6952 13.3709 12.0014 13.5305C12.3077 13.6899 12.4998 14.0065 12.4998 14.3518V47.6851C12.4998 48.1964 12.0852 48.6109 11.5739 48.6109ZM3.24052 46.7591H10.6479V16.1301L3.24052 21.3153V46.7591Z" fill="#3E5798"/>
<path id="Vector_5" d="M47.6852 48.611H38.4259C37.9146 48.611 37.5 48.1965 37.5 47.6851V14.3518C37.5 14.0065 37.692 13.6899 37.9983 13.5305C38.3046 13.3709 38.6741 13.3952 38.9569 13.5932L48.2162 20.0746C48.4638 20.248 48.6112 20.531 48.6112 20.8332V47.685C48.6111 48.1965 48.1965 48.611 47.6852 48.611ZM39.3519 46.7592H46.7593V21.3154L39.3519 16.1302V46.7592Z" fill="#3E5798"/>
<path id="Vector_6" d="M25.0003 17.1294C20.6605 17.1294 17.1299 13.5988 17.1299 9.25904C17.1299 4.91932 20.6605 1.38867 25.0003 1.38867C29.34 1.38867 32.8706 4.91932 32.8706 9.25904C32.8706 13.5988 29.34 17.1294 25.0003 17.1294ZM25.0003 3.24052C21.6816 3.24052 18.9817 5.94043 18.9817 9.25904C18.9817 12.5777 21.6816 15.2776 25.0003 15.2776C28.3189 15.2776 31.0188 12.5777 31.0188 9.25904C31.0188 5.94043 28.3189 3.24052 25.0003 3.24052Z" fill="#3E5798"/>
<path id="Vector_7" d="M25.0001 13.4256C24.4888 13.4256 24.0742 13.0111 24.0742 12.4997V6.01821C24.0742 5.50682 24.4888 5.09229 25.0001 5.09229C25.5114 5.09229 25.9261 5.50682 25.9261 6.01821V12.4997C25.9261 13.0111 25.5114 13.4256 25.0001 13.4256Z" fill="#3E5798"/>
<path id="Vector_8" d="M28.2404 10.1849H21.7589C21.2475 10.1849 20.833 9.77032 20.833 9.25893C20.833 8.74754 21.2475 8.33301 21.7589 8.33301H28.2404C28.7517 8.33301 29.1663 8.74754 29.1663 9.25893C29.1663 9.77032 28.7517 10.1849 28.2404 10.1849Z" fill="#3E5798"/>
<path id="Vector_9" d="M22.6849 26.3889H15.2775C14.7661 26.3889 14.3516 25.9743 14.3516 25.4629V19.9074C14.3516 19.396 14.7661 18.9814 15.2775 18.9814H22.6849C23.1963 18.9814 23.6108 19.396 23.6108 19.9074V25.4629C23.6108 25.9743 23.1963 26.3889 22.6849 26.3889ZM16.2034 24.537H21.759V20.8333H16.2034V24.537Z" fill="#3E5798"/>
<path id="Vector_10" d="M34.722 26.3889H27.3146C26.8033 26.3889 26.3887 25.9743 26.3887 25.4629V19.9074C26.3887 19.396 26.8033 18.9814 27.3146 18.9814H34.722C35.2333 18.9814 35.6479 19.396 35.6479 19.9074V25.4629C35.6479 25.9743 35.2333 26.3889 34.722 26.3889ZM28.2405 24.537H33.7961V20.8333H28.2405V24.537Z" fill="#3E5798"/>
<path id="Vector_11" d="M24.9994 48.611H17.1291C16.6177 48.611 16.2031 48.1965 16.2031 47.6851V32.8703C16.2031 32.3589 16.6177 31.9443 17.1291 31.9443H24.9994C25.5107 31.9443 25.9253 32.3589 25.9253 32.8703V47.6851C25.9253 48.1965 25.5107 48.611 24.9994 48.611ZM18.055 46.7592H24.0735V33.7962H18.055V46.7592Z" fill="#3E5798"/>
<path id="Vector_12" d="M32.8705 48.611H25.0001C24.4888 48.611 24.0742 48.1965 24.0742 47.6851V32.8703C24.0742 32.3589 24.4888 31.9443 25.0001 31.9443H32.8705C33.3818 31.9443 33.7964 32.3589 33.7964 32.8703V47.6851C33.7964 48.1965 33.3818 48.611 32.8705 48.611ZM25.9261 46.7592H31.9446V33.7962H25.9261V46.7592Z" fill="#3E5798"/>
<path id="Vector_13" d="M34.7219 33.7958H15.2775C14.7661 33.7958 14.3516 33.3813 14.3516 32.8699V29.1662C14.3516 28.6548 14.7661 28.2402 15.2775 28.2402H34.7219C35.2332 28.2402 35.6479 28.6548 35.6479 29.1662V32.8699C35.6479 33.3813 35.2332 33.7958 34.7219 33.7958ZM16.2034 31.9439H33.796V30.0921H16.2034V31.9439Z" fill="#3E5798"/>
</g>
</g>
</g>
</svg>
