<svg width="50" height="50" viewBox="0 0 50 50" fill="none" xmlns="http://www.w3.org/2000/svg">
<g id="noun-magnet-therapy-5760391 1">
<g id="Group">
<g id="Group_2">
<path id="Vector" d="M24.9999 48.611C15.0441 48.611 6.94434 40.5112 6.94434 30.5554V14.3517C6.94434 13.8404 7.35887 13.4258 7.87026 13.4258H14.3517C14.8631 13.4258 15.2777 13.8404 15.2777 14.3517V30.5554C15.2777 35.9162 19.6391 40.2776 24.9999 40.2776C30.3607 40.2776 34.7221 35.9162 34.7221 30.5554V14.3517C34.7221 13.8404 35.1367 13.4258 35.648 13.4258H42.1295C42.6408 13.4258 43.0554 13.8404 43.0554 14.3517V30.5554C43.0554 40.5112 34.9557 48.611 24.9999 48.611ZM8.79619 15.2776V30.5554C8.79619 39.4901 16.0652 46.7591 24.9999 46.7591C33.9346 46.7591 41.2036 39.4901 41.2036 30.5554V15.2776H36.574V30.5554C36.574 36.9374 31.3818 42.1295 24.9999 42.1295C18.6179 42.1295 13.4258 36.9374 13.4258 30.5554V15.2776H8.79619Z" fill="#3E5798"/>
<path id="Vector_2" d="M24.5357 32.8695C24.3736 32.8695 24.2094 32.8268 24.0602 32.7373C23.6217 32.4742 23.4795 31.9055 23.7426 31.467L25.679 28.2396H22.6847C22.3775 28.2396 22.0903 28.0872 21.918 27.8328C21.7457 27.5783 21.7109 27.2551 21.825 26.9698L23.6769 22.3402C23.8668 21.8653 24.4056 21.6343 24.8805 21.8244C25.3553 22.0144 25.5862 22.5532 25.3963 23.028L24.0524 26.3878H27.3144C27.648 26.3878 27.9557 26.5672 28.1201 26.8575C28.2844 27.1478 28.28 27.504 28.1083 27.79L25.3306 32.4196C25.1569 32.7091 24.8503 32.8694 24.5357 32.8695Z" fill="#3E5798"/>
<path id="Vector_3" d="M2.3146 12.0368C1.80321 12.0368 1.38867 11.6222 1.38867 11.1109C1.38867 5.75006 5.75006 1.38867 11.1109 1.38867C11.6223 1.38867 12.0368 1.8033 12.0368 2.3146C12.0368 2.82589 11.6223 3.24052 11.1109 3.24052C6.77117 3.24052 3.24052 6.77117 3.24052 11.1109C3.24052 11.6222 2.82599 12.0368 2.3146 12.0368Z" fill="#3E5798"/>
<path id="Vector_4" d="M6.08413 11.8779C5.57274 11.8779 5.1582 11.4633 5.1582 10.952C5.1582 7.75728 7.75728 5.1582 10.952 5.1582C11.4634 5.1582 11.8779 5.57283 11.8779 6.08413C11.8779 6.59543 11.4634 7.01006 10.952 7.01006C8.77839 7.01006 7.01006 8.77848 7.01006 10.952C7.01006 11.4634 6.59552 11.8779 6.08413 11.8779Z" fill="#3E5798"/>
<path id="Vector_5" d="M47.6851 12.0368C47.1738 12.0368 46.7592 11.6222 46.7592 11.1109C46.7592 6.77117 43.2285 3.24052 38.8888 3.24052C38.3775 3.24052 37.9629 2.82589 37.9629 2.3146C37.9629 1.8033 38.3775 1.38867 38.8888 1.38867C44.2496 1.38867 48.611 5.75006 48.611 11.1109C48.611 11.6222 48.1964 12.0368 47.6851 12.0368Z" fill="#3E5798"/>
<path id="Vector_6" d="M43.9159 11.8779C43.4046 11.8779 42.9899 11.4633 42.9899 10.952C42.9899 8.77839 41.2215 7.01006 39.048 7.01006C38.5367 7.01006 38.1221 6.59543 38.1221 6.08413C38.1221 5.57283 38.5367 5.1582 39.048 5.1582C42.2427 5.1582 44.8418 7.75728 44.8418 10.952C44.8418 11.4634 44.4273 11.8779 43.9159 11.8779Z" fill="#3E5798"/>
<path id="Vector_7" d="M14.3517 20.8323H7.87026C7.35887 20.8323 6.94434 20.4177 6.94434 19.9064C6.94434 19.3951 7.35887 18.9805 7.87026 18.9805H14.3517C14.8631 18.9805 15.2777 19.3951 15.2777 19.9064C15.2777 20.4177 14.8631 20.8323 14.3517 20.8323Z" fill="#3E5798"/>
<path id="Vector_8" d="M42.1291 20.8323H35.6476C35.1363 20.8323 34.7217 20.4177 34.7217 19.9064C34.7217 19.3951 35.1363 18.9805 35.6476 18.9805H42.1291C42.6404 18.9805 43.055 19.3951 43.055 19.9064C43.055 20.4177 42.6404 20.8323 42.1291 20.8323Z" fill="#3E5798"/>
<path id="Vector_9" d="M10.1281 11.055C10.6394 11.055 11.054 10.6404 11.054 10.1291C11.054 9.61768 10.6394 9.20312 10.1281 9.20312C9.6167 9.20312 9.20215 9.61768 9.20215 10.1291C9.20215 10.6404 9.6167 11.055 10.1281 11.055Z" fill="#3E5798"/>
<path id="Vector_10" d="M39.8703 11.055C40.3816 11.055 40.7962 10.6404 40.7962 10.1291C40.7962 9.61768 40.3816 9.20312 39.8703 9.20312C39.3589 9.20312 38.9443 9.61768 38.9443 10.1291C38.9443 10.6404 39.3589 11.055 39.8703 11.055Z" fill="#3E5798"/>
</g>
</g>
</g>
</svg>
