<svg width="50" height="50" viewBox="0 0 50 50" fill="none" xmlns="http://www.w3.org/2000/svg">
<g id="noun-yoga-mat-5760383 1">
<g id="Group">
<g id="Group_2">
<path id="Vector" d="M8.33312 43.0569C4.50395 43.0569 1.38867 39.9416 1.38867 36.1124C1.38867 32.2832 4.50395 29.168 8.33312 29.168C12.1623 29.168 15.2776 32.2832 15.2776 36.1124C15.2776 39.9416 12.1623 43.0569 8.33312 43.0569ZM8.33312 31.0198C5.52506 31.0198 3.24052 33.3044 3.24052 36.1124C3.24052 38.9205 5.52506 41.205 8.33312 41.205C11.1412 41.205 13.4257 38.9205 13.4257 36.1124C13.4257 33.3044 11.1412 31.0198 8.33312 31.0198Z" fill="#3E5798"/>
<path id="Vector_2" d="M14.3516 37.0379C13.8402 37.0379 13.4257 36.6233 13.4257 36.1119V13.9892C13.4257 11.0973 11.083 8.74387 8.22895 8.79813C5.4783 8.85313 3.24052 11.1372 3.24052 13.8897V36.1119C3.24052 36.6233 2.82599 37.0379 2.3146 37.0379C1.80321 37.0379 1.38867 36.6233 1.38867 36.1119V12.9638C1.38867 11.1119 3.75497 7.03535 8.19191 6.94665C12.1028 6.87026 15.2776 10.0798 15.2776 13.9892V36.1119C15.2776 36.6233 14.863 37.0379 14.3516 37.0379Z" fill="#3E5798"/>
<path id="Vector_3" d="M44.9072 43.0557H8.33315C7.82176 43.0557 7.40723 42.6412 7.40723 42.1298C7.40723 41.6184 7.82176 41.2038 8.33315 41.2038H44.9072C45.9283 41.2038 46.7591 40.3731 46.7591 39.352V15.2779C46.7591 14.2568 45.9283 13.4261 44.9072 13.4261H14.1896C13.6782 13.4261 13.2637 13.0115 13.2637 12.5001C13.2637 11.9888 13.6782 11.5742 14.1896 11.5742H44.9072C46.9495 11.5742 48.6109 13.2357 48.6109 15.2779V39.352C48.6109 41.3942 46.9495 43.0557 44.9072 43.0557Z" fill="#3E5798"/>
<path id="Vector_4" d="M42.1291 43.0557C41.6177 43.0557 41.2031 42.6412 41.2031 42.1298V12.5001C41.2031 11.9888 41.6177 11.5742 42.1291 11.5742C42.6404 11.5742 43.055 11.9888 43.055 12.5001V42.1298C43.055 42.6412 42.6404 43.0557 42.1291 43.0557Z" fill="#3E5798"/>
<path id="Vector_5" d="M37.5001 43.0557C36.9888 43.0557 36.5742 42.6412 36.5742 42.1298V12.5001C36.5742 11.9888 36.9888 11.5742 37.5001 11.5742C38.0115 11.5742 38.4261 11.9888 38.4261 12.5001V42.1298C38.4261 42.6412 38.0115 43.0557 37.5001 43.0557Z" fill="#3E5798"/>
</g>
</g>
</g>
</svg>
