<svg width="50" height="50" viewBox="0 0 50 50" fill="none" xmlns="http://www.w3.org/2000/svg">
<g id="noun-massage-ball-5760389 1">
<g id="Group">
<g id="Group_2">
<path id="Vector" d="M25.0002 44.9066C13.998 44.9066 5.09277 36.003 5.09277 24.9992C5.09277 13.997 13.9964 5.0918 25.0002 5.0918C36.0024 5.0918 44.9076 13.9954 44.9076 24.9992C44.9076 36.0014 36.004 44.9066 25.0002 44.9066ZM25.0002 6.94365C15.0443 6.94365 6.94463 15.0434 6.94463 24.9992C6.94463 34.955 15.0443 43.0548 25.0002 43.0548C34.956 43.0548 43.0557 34.955 43.0557 24.9992C43.0557 15.0434 34.956 6.94365 25.0002 6.94365Z" fill="#3E5798"/>
<path id="Vector_2" d="M27.3143 7.08497C26.803 7.08497 26.3884 6.67043 26.3884 6.15904V4.62941C26.3884 3.86358 25.7654 3.24052 24.9995 3.24052C24.2337 3.24052 23.6106 3.86358 23.6106 4.62941V6.15904C23.6106 6.67043 23.196 7.08497 22.6847 7.08497C22.1734 7.08497 21.7588 6.67043 21.7588 6.15904V4.62941C21.7588 2.84247 23.2126 1.38867 24.9995 1.38867C26.7865 1.38867 28.2403 2.84247 28.2403 4.62941V6.15904C28.2403 6.67043 27.8256 7.08497 27.3143 7.08497Z" fill="#3E5798"/>
<path id="Vector_3" d="M9.38543 13.968L8.30385 12.8865C7.03681 11.6207 7.03654 9.57007 8.30422 8.30358C9.56959 7.03692 11.6204 7.03655 12.8868 8.30414L13.968 9.38534C14.3296 9.74692 14.3296 10.3332 13.968 10.6948C13.6063 11.0564 13.0201 11.0565 12.6585 10.6948L11.577 9.61331C11.0349 9.07081 10.1566 9.06933 9.61357 9.61303C9.07144 10.1547 9.06857 11.0329 9.61292 11.5767L10.6949 12.6586C11.0564 13.0202 11.0564 13.6065 10.6949 13.968C10.3332 14.3296 9.74709 14.3297 9.38543 13.968Z" fill="#3E5798"/>
<path id="Vector_4" d="M6.15904 28.2412H4.62941C2.84247 28.2412 1.38867 26.7875 1.38867 25.0005C1.38867 23.2136 2.84247 21.7598 4.62941 21.7598H6.15904C6.67034 21.7598 7.08497 22.1743 7.08497 22.6857C7.08497 23.1971 6.67034 23.6116 6.15904 23.6116H4.62941C3.86358 23.6116 3.24052 24.2347 3.24052 25.0005C3.24052 25.7663 3.86358 26.3894 4.62941 26.3894H6.15904C6.67034 26.3894 7.08497 26.8039 7.08497 27.3153C7.08497 27.8267 6.67034 28.2412 6.15904 28.2412Z" fill="#3E5798"/>
<path id="Vector_5" d="M8.30357 41.6947C7.037 40.4295 7.03644 38.3785 8.30422 37.1122L9.38543 36.0309C9.74718 35.6694 10.3333 35.6694 10.695 36.0309C11.0566 36.3925 11.0565 36.9788 10.695 37.3404L9.61339 38.4219C9.06959 38.965 9.07043 39.8432 9.61302 40.3853C10.1581 40.9309 11.0362 40.927 11.5768 40.3859C11.9382 40.024 12.5243 40.0238 12.8864 40.3853C13.248 40.7467 13.2483 41.333 12.8869 41.6947C11.6205 42.9622 9.56996 42.9624 8.30357 41.6947Z" fill="#3E5798"/>
<path id="Vector_6" d="M24.9995 48.6104C23.2126 48.6104 21.7588 47.1566 21.7588 45.3696V43.84C21.7588 43.3286 22.1734 42.9141 22.6847 42.9141C23.196 42.9141 23.6106 43.3286 23.6106 43.84V45.3696C23.6106 46.1355 24.2337 46.7585 24.9995 46.7585C25.7654 46.7585 26.3884 46.1355 26.3884 45.3696V43.84C26.3884 43.3286 26.803 42.9141 27.3143 42.9141C27.8256 42.9141 28.2403 43.3286 28.2403 43.84V45.3696C28.2403 47.1566 26.7865 48.6104 24.9995 48.6104Z" fill="#3E5798"/>
<path id="Vector_7" d="M37.1122 41.6948L36.0309 40.6136C35.6694 40.252 35.6694 39.6657 36.0309 39.3041C36.3927 38.9426 36.9788 38.9426 37.3405 39.3041L38.422 40.3856C38.6845 40.6483 39.0331 40.7928 39.4038 40.7928C40.1703 40.7928 40.7929 40.1711 40.7929 39.4038C40.7929 39.033 40.6484 38.6844 40.3859 38.4223L39.304 37.3404C38.9424 36.9789 38.9424 36.3926 39.304 36.031C39.6657 35.6694 40.2518 35.6693 40.6135 36.031L41.6951 37.1125C42.9622 38.3783 42.9624 40.4289 41.6947 41.6954C40.4295 42.962 38.3786 42.9625 37.1122 41.6948Z" fill="#3E5798"/>
<path id="Vector_8" d="M45.3706 28.2412H43.841C43.3297 28.2412 42.915 27.8267 42.915 27.3153C42.915 26.8039 43.3297 26.3894 43.841 26.3894H45.3706C46.1364 26.3894 46.7595 25.7663 46.7595 25.0005C46.7595 24.2347 46.1364 23.6116 45.3706 23.6116H43.841C43.3297 23.6116 42.915 23.1971 42.915 22.6857C42.915 22.1743 43.3297 21.7598 43.841 21.7598H45.3706C47.1575 21.7598 48.6113 23.2136 48.6113 25.0005C48.6113 26.7875 47.1575 28.2412 45.3706 28.2412Z" fill="#3E5798"/>
<path id="Vector_9" d="M39.3041 13.968C38.9425 13.6064 38.9425 13.0201 39.3041 12.6586L40.3857 11.5771C40.9295 11.0339 40.9286 10.1558 40.386 9.61365C39.8409 9.06801 38.9629 9.07199 38.4222 9.6131L37.3405 10.6949C36.9788 11.0564 36.3927 11.0565 36.0309 10.6949C35.6694 10.3333 35.6694 9.74699 36.0309 9.38541L37.1124 8.30393C38.3784 7.0368 40.429 7.03652 41.6954 8.30421C42.962 9.56949 42.9625 11.6204 41.6947 12.8868L40.6135 13.968C40.252 14.3296 39.6659 14.3297 39.3041 13.968Z" fill="#3E5798"/>
<path id="Vector_10" d="M24.9995 16.2041C23.2126 16.2041 21.7588 14.7503 21.7588 12.9634C21.7588 11.1765 23.2126 9.72266 24.9995 9.72266C26.7865 9.72266 28.2403 11.1765 28.2403 12.9634C28.2403 14.7503 26.7865 16.2041 24.9995 16.2041ZM24.9995 11.5745C24.2337 11.5745 23.6106 12.1976 23.6106 12.9634C23.6106 13.7292 24.2337 14.3523 24.9995 14.3523C25.7654 14.3523 26.3884 13.7292 26.3884 12.9634C26.3884 12.1976 25.7654 11.5745 24.9995 11.5745Z" fill="#3E5798"/>
<path id="Vector_11" d="M37.0366 28.2412C35.2497 28.2412 33.7959 26.7875 33.7959 25.0005C33.7959 23.2136 35.2497 21.7598 37.0366 21.7598C38.8236 21.7598 40.2774 23.2136 40.2774 25.0005C40.2774 26.7875 38.8236 28.2412 37.0366 28.2412ZM37.0366 23.6116C36.2708 23.6116 35.6478 24.2347 35.6478 25.0005C35.6478 25.7663 36.2708 26.3894 37.0366 26.3894C37.8025 26.3894 38.4255 25.7663 38.4255 25.0005C38.4255 24.2347 37.8025 23.6116 37.0366 23.6116Z" fill="#3E5798"/>
<path id="Vector_12" d="M24.9995 28.2412C23.2126 28.2412 21.7588 26.7875 21.7588 25.0005C21.7588 23.2136 23.2126 21.7598 24.9995 21.7598C26.7865 21.7598 28.2403 23.2136 28.2403 25.0005C28.2403 26.7875 26.7865 28.2412 24.9995 28.2412ZM24.9995 23.6116C24.2337 23.6116 23.6106 24.2347 23.6106 25.0005C23.6106 25.7663 24.2337 26.3894 24.9995 26.3894C25.7654 26.3894 26.3884 25.7663 26.3884 25.0005C26.3884 24.2347 25.7654 23.6116 24.9995 23.6116Z" fill="#3E5798"/>
<path id="Vector_13" d="M12.9624 28.2412C11.1755 28.2412 9.72168 26.7875 9.72168 25.0005C9.72168 23.2136 11.1755 21.7598 12.9624 21.7598C14.7494 21.7598 16.2032 23.2136 16.2032 25.0005C16.2032 26.7875 14.7494 28.2412 12.9624 28.2412ZM12.9624 23.6116C12.1966 23.6116 11.5735 24.2347 11.5735 25.0005C11.5735 25.7663 12.1966 26.3894 12.9624 26.3894C13.7283 26.3894 14.3513 25.7663 14.3513 25.0005C14.3513 24.2347 13.7283 23.6116 12.9624 23.6116Z" fill="#3E5798"/>
<path id="Vector_14" d="M16.2036 18.9813C14.6719 18.9813 13.4258 17.7352 13.4258 16.2036C13.4258 14.6719 14.6719 13.4258 16.2036 13.4258C17.7352 13.4258 18.9813 14.6719 18.9813 16.2036C18.9813 17.7352 17.7352 18.9813 16.2036 18.9813ZM16.2036 15.2776C15.693 15.2776 15.2776 15.693 15.2776 16.2036C15.2776 16.7141 15.693 17.1295 16.2036 17.1295C16.7141 17.1295 17.1295 16.7141 17.1295 16.2036C17.1295 15.693 16.7141 15.2776 16.2036 15.2776Z" fill="#3E5798"/>
<path id="Vector_15" d="M33.7963 18.9813C32.2647 18.9813 31.0186 17.7352 31.0186 16.2036C31.0186 14.6719 32.2647 13.4258 33.7963 13.4258C35.328 13.4258 36.5741 14.6719 36.5741 16.2036C36.5741 17.7352 35.328 18.9813 33.7963 18.9813ZM33.7963 15.2776C33.2858 15.2776 32.8704 15.693 32.8704 16.2036C32.8704 16.7141 33.2858 17.1295 33.7963 17.1295C34.3069 17.1295 34.7223 16.7141 34.7223 16.2036C34.7223 15.693 34.3069 15.2776 33.7963 15.2776Z" fill="#3E5798"/>
<path id="Vector_16" d="M33.7963 36.5731C32.2647 36.5731 31.0186 35.327 31.0186 33.7954C31.0186 32.2637 32.2647 31.0176 33.7963 31.0176C35.328 31.0176 36.5741 32.2637 36.5741 33.7954C36.5741 35.327 35.328 36.5731 33.7963 36.5731ZM33.7963 32.8694C33.2858 32.8694 32.8704 33.2848 32.8704 33.7954C32.8704 34.3059 33.2858 34.7213 33.7963 34.7213C34.3069 34.7213 34.7223 34.3059 34.7223 33.7954C34.7223 33.2848 34.3069 32.8694 33.7963 32.8694Z" fill="#3E5798"/>
</g>
</g>
</g>
</svg>
