<svg width="50" height="50" viewBox="0 0 50 50" fill="none" xmlns="http://www.w3.org/2000/svg">
<g id="noun-discount-3969357 1">
<g id="Group">
<g id="Group_2">
<g id="Group_3">
<g id="Group_4">
<path id="Vector" d="M24.9999 48.3887C24.7984 48.3887 24.597 48.3265 24.4259 48.2022L18.7912 44.1084H11.8263C11.4033 44.1084 11.0283 43.836 10.8975 43.4336L8.74529 36.8097L3.11062 32.7158C2.76834 32.4672 2.62517 32.0264 2.75584 31.624L4.90818 25L2.75584 18.3761C2.62517 17.9738 2.76834 17.5329 3.11062 17.2843L8.74529 13.1904L10.8975 6.56653C11.0283 6.16418 11.4033 5.89172 11.8263 5.89172H18.7912L24.4259 1.79788C24.7681 1.54915 25.2316 1.54915 25.5739 1.79788L31.2086 5.89172H38.1733C38.5964 5.89172 38.9714 6.16418 39.1021 6.56653L41.2544 13.1904L46.889 17.2843C47.2313 17.5329 47.3746 17.9738 47.2438 18.3761L45.0916 25L47.2438 31.624C47.3746 32.0264 47.2313 32.4672 46.889 32.7158L41.2544 36.8097L39.1021 43.4336C38.9714 43.836 38.5964 44.1084 38.1733 44.1084H31.2086L25.5739 48.2022C25.4027 48.3265 25.2012 48.3887 24.9999 48.3887ZM12.5359 42.1553H19.1085C19.3147 42.1553 19.5156 42.2206 19.6825 42.3418L24.9999 46.2051L30.3173 42.3418C30.4842 42.2206 30.6851 42.1553 30.8913 42.1553H37.4638L39.4949 35.9043C39.5586 35.7081 39.6829 35.5372 39.8497 35.416L45.1671 31.5528L43.136 25.3017C43.0723 25.1056 43.0723 24.8943 43.136 24.6982L45.1671 18.4472L39.8497 14.5838C39.6829 14.4626 39.5587 14.2917 39.4949 14.0955L37.4638 7.84465H30.8913C30.6851 7.84465 30.4842 7.77932 30.3173 7.65813L24.9999 3.79495L19.6825 7.65833C19.5157 7.77952 19.3147 7.84485 19.1085 7.84485H12.5358L10.5048 14.0957C10.441 14.2919 10.3169 14.4628 10.15 14.584L4.83269 18.4473L6.86375 24.6983C6.92742 24.8944 6.92742 25.1057 6.86375 25.3018L4.83269 31.5529L10.1501 35.4161C10.3169 35.5373 10.4411 35.7082 10.5049 35.9044L12.5359 42.1553Z" fill="#3E5798"/>
</g>
<g id="Group_5">
<g id="Group_6">
<g id="Group_7">
<path id="Vector_2" d="M25 38.6719C17.4613 38.6719 11.3281 32.5387 11.3281 25C11.3281 17.4613 17.4613 11.3281 25 11.3281C32.5387 11.3281 38.6719 17.4613 38.6719 25C38.6719 32.5387 32.5387 38.6719 25 38.6719ZM25 13.2812C18.5383 13.2812 13.2812 18.5383 13.2812 25C13.2812 31.4617 18.5383 36.7188 25 36.7188C31.4617 36.7188 36.7188 31.4617 36.7188 25C36.7188 18.5383 31.4617 13.2812 25 13.2812Z" fill="#3E5798"/>
</g>
<g id="Group_8">
<path id="Vector_3" d="M19.1406 31.8359C18.8907 31.8359 18.6407 31.7405 18.4501 31.5499C18.0687 31.1686 18.0687 30.5502 18.4501 30.1688L30.1688 18.45C30.5503 18.0687 31.1684 18.0687 31.55 18.45C31.9313 18.8313 31.9313 19.4497 31.55 19.8312L19.8312 31.5499C19.6405 31.7405 19.3905 31.8359 19.1406 31.8359Z" fill="#3E5798"/>
</g>
<g id="Group_9">
<path id="Vector_4" d="M22.9283 22.0703C22.1458 22.0703 21.41 21.7655 20.8567 21.2122C19.7144 20.0699 19.7144 18.2113 20.8567 17.0689C21.4101 16.5156 22.1458 16.2109 22.9283 16.2109C23.7109 16.2109 24.4466 16.5156 24.9999 17.0689C26.1422 18.2112 26.1422 20.0698 24.9999 21.2122C24.4466 21.7655 23.7108 22.0703 22.9283 22.0703ZM22.9283 18.1641C22.6675 18.1641 22.4222 18.2656 22.2378 18.4501C22.0533 18.6346 21.9517 18.8797 21.9517 19.1406C21.9517 19.4015 22.0533 19.6467 22.2378 19.8311C22.4222 20.0155 22.6675 20.1172 22.9283 20.1172C23.1891 20.1172 23.4344 20.0155 23.6188 19.8311C23.8033 19.6466 23.9049 19.4015 23.9049 19.1406C23.9049 18.8797 23.8033 18.6345 23.6188 18.4501C23.4344 18.2656 23.1891 18.1641 22.9283 18.1641Z" fill="#3E5798"/>
</g>
<g id="Group_10">
<path id="Vector_5" d="M26.9527 33.7873C26.2025 33.7873 25.4522 33.5018 24.8811 32.9307C23.7388 31.7884 23.7388 29.9298 24.8811 28.7874C26.0234 27.645 27.8821 27.6451 29.0244 28.7874C30.1665 29.9297 30.1665 31.7883 29.0244 32.9306C28.4532 33.5018 27.703 33.7873 26.9527 33.7873ZM26.9527 29.8825C26.6919 29.8825 26.4467 29.9841 26.2622 30.1686C26.0777 30.353 25.9761 30.5982 25.9761 30.8591C25.9761 31.1199 26.0777 31.3652 26.2622 31.5495C26.4467 31.734 26.6919 31.8357 26.9527 31.8357C27.2135 31.8357 27.4589 31.734 27.6432 31.5495C28.0239 31.1689 28.0239 30.5492 27.6432 30.1684C27.4589 29.9841 27.2136 29.8825 26.9527 29.8825Z" fill="#3E5798"/>
</g>
</g>
</g>
</g>
</g>
</g>
</g>
</svg>
