<svg width="50" height="50" viewBox="0 0 50 50" fill="none" xmlns="http://www.w3.org/2000/svg">
<g id="noun-electrotherapy-5760399 1" clip-path="url(#clip0_1104_974)">
<g id="Group">
<g id="Group_2">
<path id="Vector" d="M24.2188 22.1201C22.6896 22.1201 21.3059 22.764 20.3125 23.799V14.1544C20.3125 12.3975 18.9106 10.9681 17.1875 10.9681C16.5445 10.9681 15.9462 11.1674 15.4488 11.5083C15.0213 10.2674 13.8612 9.375 12.5 9.375C11.1388 9.375 9.97867 10.2674 9.55117 11.5083C9.05375 11.1674 8.45555 10.9681 7.8125 10.9681C6.45125 10.9681 5.29117 11.8605 4.86367 13.1014C4.36625 12.7605 3.76805 12.5613 3.125 12.5613C1.40188 12.5613 0 13.9906 0 15.7475V31.6789C0 34.3288 0.830547 36.9561 2.34375 39.1087V49.2034C2.34375 49.6433 2.69359 50 3.125 50H21.875C22.3064 50 22.6562 49.6433 22.6562 49.2034V39.1693C24.1701 37.5082 25 35.3584 25 33.0787V22.9167C25 22.4768 24.6502 22.1201 24.2188 22.1201ZM23.4375 33.0787C23.4375 35.0453 22.6864 36.8941 21.3226 38.2847C21.1761 38.4342 21.0938 38.6368 21.0938 38.848V48.4069H3.90625V38.848C3.90625 38.6757 3.85141 38.508 3.75 38.3701C2.33938 36.4524 1.5625 34.0761 1.5625 31.6789V15.7475C1.5625 14.8691 2.26344 14.1544 3.125 14.1544C3.98656 14.1544 4.6875 14.8691 4.6875 15.7475V24.5098C4.6875 24.9497 5.03734 25.3064 5.46875 25.3064C5.90016 25.3064 6.25 24.9497 6.25 24.5098C6.25 23.1924 6.25 15.6802 6.25 14.1544C6.25 13.276 6.95094 12.5613 7.8125 12.5613C8.67406 12.5613 9.375 13.276 9.375 14.1544C9.375 14.5155 9.375 24.149 9.375 24.5098C9.375 24.9497 9.72484 25.3064 10.1562 25.3064C10.5877 25.3064 10.9375 24.9497 10.9375 24.5098C10.9375 22.972 10.9375 14.4329 10.9375 12.5613C10.9375 11.6828 11.6384 10.9681 12.5 10.9681C13.3616 10.9681 14.0625 11.6828 14.0625 12.5613C14.0625 14.4534 14.0625 22.9954 14.0625 24.5098C14.0625 24.9497 14.4123 25.3064 14.8438 25.3064C15.2752 25.3064 15.625 24.9497 15.625 24.5098C15.625 24.1481 15.625 14.5152 15.625 14.1544C15.625 13.276 16.3259 12.5613 17.1875 12.5613C18.0491 12.5613 18.75 13.276 18.75 14.1544C18.75 14.2064 18.7536 30.1542 18.75 31.6789C18.75 32.1188 19.0998 32.4755 19.5312 32.4755C19.9627 32.4755 20.3125 32.1188 20.3125 31.6789V27.6961C20.3125 25.7727 21.6567 24.1633 23.4375 23.7933V33.0787Z" fill="#3E5798"/>
</g>
<g id="Group_3">
<path id="Vector_2" d="M24.5703 12.7451C26.1759 12.7451 27.6288 13.389 28.6719 14.424V4.77941C28.6719 3.0225 30.1438 1.59314 31.9531 1.59314C32.6283 1.59314 33.2564 1.79236 33.7787 2.13329C34.2276 0.892396 35.4457 0 36.875 0C38.3043 0 39.5224 0.892396 39.9713 2.13329C40.4936 1.79236 41.1217 1.59314 41.7969 1.59314C43.2262 1.59314 44.4443 2.48553 44.8931 3.72643C45.4154 3.3855 46.0436 3.18627 46.7188 3.18627C48.528 3.18627 50 4.61564 50 6.37255V22.3039C50 24.9538 49.1279 27.5811 47.5391 29.7337V39.8284C47.5391 40.2683 47.1717 40.625 46.7188 40.625H27.0312C26.5783 40.625 26.2109 40.2683 26.2109 39.8284V29.7943C24.6214 28.1332 23.75 25.9834 23.75 23.7037V13.5417C23.75 13.1018 24.1173 12.7451 24.5703 12.7451ZM25.3906 23.7037C25.3906 25.6703 26.1793 27.5191 27.6113 28.9097C27.7651 29.0592 27.8516 29.2618 27.8516 29.473V39.0319H45.8984V29.473C45.8984 29.3007 45.956 29.133 46.0625 28.9951C47.5437 27.0774 48.3594 24.7011 48.3594 22.3039V6.37255C48.3594 5.49409 47.6234 4.77941 46.7188 4.77941C45.8141 4.77941 45.0781 5.49409 45.0781 6.37255V15.1348C45.0781 15.5747 44.7108 15.9314 44.2578 15.9314C43.8048 15.9314 43.4375 15.5747 43.4375 15.1348C43.4375 13.8174 43.4375 6.30516 43.4375 4.77941C43.4375 3.90096 42.7015 3.18627 41.7969 3.18627C40.8922 3.18627 40.1562 3.90096 40.1562 4.77941C40.1562 5.1405 40.1562 14.774 40.1562 15.1348C40.1562 15.5747 39.7889 15.9314 39.3359 15.9314C38.883 15.9314 38.5156 15.5747 38.5156 15.1348C38.5156 13.597 38.5156 5.05789 38.5156 3.18627C38.5156 2.30782 37.7796 1.59314 36.875 1.59314C35.9704 1.59314 35.2344 2.30782 35.2344 3.18627C35.2344 5.07836 35.2344 13.6204 35.2344 15.1348C35.2344 15.5747 34.867 15.9314 34.4141 15.9314C33.9611 15.9314 33.5938 15.5747 33.5938 15.1348C33.5938 14.7731 33.5938 5.14018 33.5938 4.77941C33.5938 3.90096 32.8578 3.18627 31.9531 3.18627C31.0485 3.18627 30.3125 3.90096 30.3125 4.77941C30.3125 4.83143 30.3087 20.7792 30.3125 22.3039C30.3125 22.7438 29.9452 23.1005 29.4922 23.1005C29.0392 23.1005 28.6719 22.7438 28.6719 22.3039V18.3211C28.6719 16.3977 27.2604 14.7883 25.3906 14.4183V23.7037Z" fill="#3E5798"/>
</g>
</g>
</g>
<defs>
<clipPath id="clip0_1104_974">
<rect width="50" height="50" fill="white"/>
</clipPath>
</defs>
</svg>
