<svg width="50" height="50" viewBox="0 0 50 50" fill="none" xmlns="http://www.w3.org/2000/svg">
<g id="noun-infrared-lamp-5760411 1">
<g id="Group">
<g id="Group_2">
<path id="Vector" d="M35.6483 16.2035H14.352C13.7623 16.2035 13.3233 15.6589 13.4466 15.0835L16.2244 2.12052C16.3159 1.69367 16.6932 1.38867 17.1298 1.38867H32.8705C33.3072 1.38867 33.6844 1.69367 33.7759 2.12052L36.5537 15.0835C36.6773 15.6602 36.2368 16.2035 35.6483 16.2035ZM15.4974 14.3516H34.5029L32.122 3.24052H17.8783L15.4974 14.3516Z" fill="#3E5798"/>
<path id="Vector_2" d="M12.8313 35.3915C12.462 35.0378 12.4494 34.4516 12.8032 34.0823C13.157 33.7131 13.7431 33.7006 14.1124 34.0541C20.2174 39.9023 29.7819 39.9023 35.8869 34.0541C36.2561 33.7005 36.8421 33.7129 37.1961 34.0823C37.5498 34.4515 37.5373 35.0376 37.168 35.3915C30.3681 41.9052 19.6403 41.9139 12.8313 35.3915Z" fill="#3E5798"/>
<path id="Vector_3" d="M42.0604 35.6713H7.80117C7.22089 35.6713 6.78293 35.1424 6.89163 34.5721L10.1652 17.3857C10.4975 15.6412 12.0276 14.375 13.8035 14.375H36.0581C37.834 14.375 39.3641 15.6412 39.6964 17.3857L42.97 34.5721C43.0786 35.1421 42.641 35.6713 42.0604 35.6713ZM8.92015 33.8194H40.9414L37.8773 17.7322C37.7111 16.86 36.946 16.2269 36.0581 16.2269H13.8035C12.9155 16.2269 12.1504 16.86 11.9843 17.7322L8.92015 33.8194Z" fill="#3E5798"/>
<path id="Vector_4" d="M25.0001 48.6104C24.4888 48.6104 24.0742 48.1958 24.0742 47.6845V43.0548C24.0742 42.5435 24.4888 42.1289 25.0001 42.1289C25.5114 42.1289 25.9261 42.5435 25.9261 43.0548V47.6845C25.9261 48.1958 25.5114 48.6104 25.0001 48.6104Z" fill="#3E5798"/>
<path id="Vector_5" d="M30.6872 48.161L27.9094 43.5313C27.6464 43.0929 27.7885 42.5241 28.2271 42.261C28.6653 41.998 29.2343 42.1399 29.4975 42.5786L32.2752 47.2083C32.5383 47.6467 32.3962 48.2155 31.9576 48.4786C31.5172 48.7427 30.9492 48.5978 30.6872 48.161Z" fill="#3E5798"/>
<path id="Vector_6" d="M18.517 48.6107C18.3548 48.6107 18.1907 48.568 18.0415 48.4786C17.603 48.2154 17.4608 47.6467 17.7238 47.2082L20.5016 42.5786C20.7646 42.1401 21.3333 41.998 21.772 42.2609C22.2105 42.5241 22.3526 43.0928 22.0896 43.5313L19.3119 48.1609C19.1383 48.4503 18.8316 48.6107 18.517 48.6107Z" fill="#3E5798"/>
<path id="Vector_7" d="M41.4235 31.9436H8.57534C8.06404 31.9436 7.64941 31.529 7.64941 31.0177C7.64941 30.5064 8.06404 30.0918 8.57534 30.0918H41.4235C41.9348 30.0918 42.3494 30.5064 42.3494 31.0177C42.3494 31.529 41.9348 31.9436 41.4235 31.9436Z" fill="#3E5798"/>
</g>
</g>
</g>
</svg>
