<svg width="50" height="50" viewBox="0 0 50 50" fill="none" xmlns="http://www.w3.org/2000/svg">
<g id="noun-leg-5760370 1" clip-path="url(#clip0_1104_1012)">
<g id="Group">
<g id="Group_2">
<path id="Vector" d="M27.8139 50.1157C25.4237 50.1157 23.4744 48.1712 23.4685 45.781C23.4765 45.7311 23.3441 43.4962 24.8798 41.4498C24.93 41.3551 26.2556 39.1004 26.2648 37.4458C26.265 37.4171 26.2648 37.3723 26.2648 37.3723C26.2576 34.9235 25.8492 32.544 25.0509 30.3024C23.9918 27.3274 24.097 24.2087 25.3396 21.1718C17.8568 23.6501 10.0984 25.203 2.24528 25.7919C1.70602 25.8318 1.25 25.4052 1.25 24.8685V10.3009C1.25 9.78954 1.66454 9.375 2.17593 9.375H27.9981C33.2994 9.375 37.7696 13.7517 37.3044 19.3571L35.8943 37.0018C35.7099 39.308 37.2769 41.4127 39.5392 41.8975L45.7167 43.2212C47.3133 43.5633 48.4722 44.9968 48.4722 46.6298C48.4722 48.5288 46.9461 50.078 45.0559 50.1152C45.0218 50.1163 45.8044 50.1155 27.8139 50.1157ZM27.8899 18.9706C28.1382 19.2713 28.1715 19.6954 27.9731 20.0311C26.0631 23.264 25.6668 26.5106 26.7955 29.6811C28.8993 35.5885 28.4741 38.558 26.3642 42.5569C25.2511 44.0401 25.3234 45.759 25.3204 45.7786C25.3237 47.148 26.4423 48.2638 27.8139 48.2638H44.9862C45.8872 48.2638 46.6204 47.5307 46.6204 46.6296C46.6204 45.8642 46.0771 45.1922 45.3286 45.0318L39.1511 43.708C35.984 43.0294 33.7903 40.0829 34.0482 36.8541C35.5218 18.4169 35.4563 19.2326 35.4587 19.2064C35.8319 14.7245 32.291 11.2269 27.9981 11.2269H3.10185V23.8653C11.2033 23.1713 19.1923 21.4312 26.8642 18.6883C27.2299 18.5576 27.6405 18.6685 27.8899 18.9706Z" fill="#3E5798"/>
<path id="Vector_2" d="M34.9581 38.0784H27.1886C26.6772 38.0784 26.2627 37.6639 26.2627 37.1525C26.2627 36.6411 26.6772 36.2266 27.1886 36.2266H34.9581C35.4695 36.2266 35.884 36.6411 35.884 37.1525C35.884 37.6639 35.4695 38.0784 34.9581 38.0784Z" fill="#3E5798"/>
<path id="Vector_3" d="M26.7442 17.2644L7.88438 17.7921C6.64302 17.8269 5.62517 17.4407 5.61086 16.9295C5.59656 16.4183 6.59122 15.9757 7.83258 15.941L26.6924 15.4132C27.9337 15.3785 28.9516 15.7647 28.9659 16.2759C28.9802 16.7871 27.9855 17.2296 26.7442 17.2644Z" fill="#3E5798"/>
<path id="Vector_4" d="M27.1469 16.2317L26.9041 10.1714C26.8882 9.77247 27.2894 9.43253 27.8004 9.41206C28.3114 9.39159 28.7385 9.69835 28.7545 10.0972L28.9973 16.1576C29.0132 16.5565 28.612 16.8964 28.101 16.9169C27.59 16.9374 27.1629 16.6306 27.1469 16.2317Z" fill="#3E5798"/>
<path id="Vector_5" d="M5.56193 16.8386L4.71228 10.3353C4.65635 9.9072 5.02206 9.50652 5.52914 9.44027C6.03622 9.37402 6.4926 9.66729 6.54852 10.0953L7.39818 16.5986C7.4541 17.0267 7.08839 17.4274 6.58131 17.4936C6.07423 17.5599 5.61786 17.2666 5.56193 16.8386Z" fill="#3E5798"/>
<path id="Vector_6" d="M9.80276 0.802067C9.80276 0.802067 9.32137 1.72778 9.45744 2.81486C9.56585 3.68101 10.4514 4.59283 10.4691 5.1134C10.5197 6.59304 9.87526 7.62089 9.87526 7.62089C9.44186 8.28522 9.38822 8.33008 8.87683 8.33008C8.36544 8.33008 7.71154 7.80476 7.9509 7.52846C7.9509 7.52846 8.84284 6.67897 8.78648 5.19639C8.76664 4.67446 7.63641 3.68025 7.52213 2.81486C7.37856 1.72756 7.9509 0.802067 7.9509 0.802067C8.20152 0.37369 8.36544 0.000447251 8.87683 0.000447237C9.38822 0.000447224 10.1248 0.096858 9.80276 0.802067Z" fill="#3E5798"/>
<path id="Vector_7" d="M17.6983 0.802067C17.6983 0.802067 17.2169 1.72778 17.3529 2.81486C17.4614 3.68101 18.3469 4.59283 18.3646 5.1134C18.4152 6.59304 17.7708 7.62089 17.7708 7.62089C17.3374 8.28522 17.2837 8.33008 16.7723 8.33008C16.2609 8.33008 15.607 7.80476 15.8464 7.52846C15.8464 7.52846 16.7383 6.67897 16.682 5.19639C16.6621 4.67446 15.5319 3.68025 15.4176 2.81486C15.2741 1.72756 15.8464 0.802067 15.8464 0.802067C16.097 0.37369 16.2609 0.000447251 16.7723 0.000447237C17.2837 0.000447224 18.0203 0.096858 17.6983 0.802067Z" fill="#3E5798"/>
<path id="Vector_8" d="M25.5938 0.802067C25.5938 0.802067 25.1124 1.72778 25.2485 2.81486C25.3569 3.68101 26.2424 4.59283 26.2602 5.1134C26.3107 6.59304 25.6663 7.62089 25.6663 7.62089C25.2329 8.28522 25.1792 8.33008 24.6678 8.33008C24.1565 8.33008 23.5026 7.80476 23.7419 7.52846C23.7419 7.52846 24.6339 6.67897 24.5775 5.19639C24.5577 4.67446 23.4274 3.68025 23.3131 2.81486C23.1696 1.72756 23.7419 0.802067 23.7419 0.802067C23.9925 0.37369 24.1565 0.000447251 24.6678 0.000447237C25.1792 0.000447224 25.9158 0.096858 25.5938 0.802067Z" fill="#3E5798"/>
</g>
</g>
</g>
<defs>
<clipPath id="clip0_1104_1012">
<rect width="50" height="50" fill="white"/>
</clipPath>
</defs>
</svg>
