<svg width="50" height="50" viewBox="0 0 50 50" fill="none" xmlns="http://www.w3.org/2000/svg">
<g id="noun-electrotherapy-5760399 (1) 1">
<g id="Group">
<g id="Group_2">
<path id="Vector" d="M38.8883 16.2035C37.076 16.2035 35.436 16.952 34.2586 18.1551V6.94423C34.2586 4.90201 32.5972 3.24052 30.5549 3.24052C29.7928 3.24052 29.0838 3.4721 28.4943 3.86839C27.9876 2.42599 26.6127 1.38867 24.9994 1.38867C23.3861 1.38867 22.0111 2.42599 21.5045 3.86839C20.9149 3.4721 20.206 3.24052 19.4438 3.24052C17.8305 3.24052 16.4556 4.27784 15.9489 5.72025C15.3594 5.32395 14.6504 5.09238 13.8883 5.09238C11.8461 5.09238 10.1846 6.75386 10.1846 8.79608V27.3146C10.1846 30.3948 11.1689 33.4488 12.9623 35.9509V47.685C12.9623 48.1963 13.377 48.6109 13.8883 48.6109H36.1105C36.6218 48.6109 37.0364 48.1963 37.0364 47.685V36.0214C38.8306 34.0905 39.8142 31.5916 39.8142 28.9417V17.1294C39.8142 16.6181 39.3996 16.2035 38.8883 16.2035ZM37.9623 28.9417C37.9623 31.2277 37.0722 33.3767 35.4558 34.9931C35.2822 35.1669 35.1846 35.4024 35.1846 35.6479V46.759H14.8142V35.6479C14.8142 35.4476 14.7492 35.2527 14.629 35.0924C12.9572 32.8632 12.0364 30.1011 12.0364 27.3146V8.79608C12.0364 7.77497 12.8672 6.94423 13.8883 6.94423C14.9094 6.94423 15.7401 7.77497 15.7401 8.79608V18.9813C15.7401 19.4926 16.1548 19.9072 16.6661 19.9072C17.1773 19.9072 17.592 19.4926 17.592 18.9813C17.592 17.45 17.592 8.71775 17.592 6.94423C17.592 5.92312 18.4227 5.09238 19.4438 5.09238C20.4649 5.09238 21.2957 5.92312 21.2957 6.94423C21.2957 7.36395 21.2957 18.5618 21.2957 18.9813C21.2957 19.4926 21.7103 19.9072 22.2216 19.9072C22.7329 19.9072 23.1475 19.4926 23.1475 18.9813C23.1475 17.1938 23.1475 7.26793 23.1475 5.09238C23.1475 4.07126 23.9783 3.24052 24.9994 3.24052C26.0205 3.24052 26.8512 4.07126 26.8512 5.09238C26.8512 7.29173 26.8512 17.221 26.8512 18.9813C26.8512 19.4926 27.2659 19.9072 27.7772 19.9072C28.2885 19.9072 28.7031 19.4926 28.7031 18.9813C28.7031 18.5608 28.7031 7.36358 28.7031 6.94423C28.7031 5.92312 29.5338 5.09238 30.5549 5.09238C31.5761 5.09238 32.4068 5.92312 32.4068 6.94423C32.4068 7.00469 32.4111 25.5423 32.4068 27.3146C32.4068 27.8259 32.8214 28.2405 33.3327 28.2405C33.844 28.2405 34.2586 27.8259 34.2586 27.3146V22.685C34.2586 20.4492 35.8518 18.5785 37.9623 18.1484V28.9417Z" fill="#3E5798"/>
<path id="Vector_2" d="M28.703 28.2412H24.0734C23.5621 28.2412 23.1475 27.8266 23.1475 27.3153V22.6857C23.1475 22.1744 23.5621 21.7598 24.0734 21.7598H28.703C29.2143 21.7598 29.6289 22.1744 29.6289 22.6857V27.3153C29.6289 27.8266 29.2143 28.2412 28.703 28.2412ZM24.9993 26.3894H27.7771V23.6116H24.9993V26.3894Z" fill="#3E5798"/>
<path id="Vector_3" d="M23.1483 36.5733H18.5187C18.0074 36.5733 17.5928 36.1586 17.5928 35.6474V31.0177C17.5928 30.5064 18.0074 30.0918 18.5187 30.0918H23.1483C23.6596 30.0918 24.0743 30.5064 24.0743 31.0177V35.6474C24.0743 36.1586 23.6596 36.5733 23.1483 36.5733ZM19.4446 34.7214H22.2224V31.9436H19.4446V34.7214Z" fill="#3E5798"/>
<path id="Vector_4" d="M29.6298 44.9073H25.0001C24.4888 44.9073 24.0742 44.4926 24.0742 43.9813V39.3517C24.0742 38.8404 24.4888 38.4258 25.0001 38.4258H29.6298C30.1411 38.4258 30.5557 38.8404 30.5557 39.3517V43.9813C30.5557 44.4926 30.1411 44.9073 29.6298 44.9073ZM25.9261 43.0554H28.7038V40.2776H25.9261V43.0554Z" fill="#3E5798"/>
<path id="Vector_5" d="M4.16645 34.2581H2.3146C1.8033 34.2581 1.38867 33.8435 1.38867 33.3322C1.38867 32.8209 1.8033 32.4062 2.3146 32.4062H4.16645C4.67775 32.4062 5.09238 32.8209 5.09238 33.3322C5.09238 33.8435 4.67775 34.2581 4.16645 34.2581Z" fill="#3E5798"/>
<path id="Vector_6" d="M18.5184 34.2581H7.87026C7.35897 34.2581 6.94434 33.8435 6.94434 33.3322C6.94434 32.8209 7.35897 32.4062 7.87026 32.4062H18.5184C19.0297 32.4062 19.4443 32.8209 19.4443 33.3322C19.4443 33.8435 19.0297 34.2581 18.5184 34.2581Z" fill="#3E5798"/>
<path id="Vector_7" d="M42.1292 25.9261H28.7033C28.192 25.9261 27.7773 25.5114 27.7773 25.0001C27.7773 24.4888 28.192 24.0742 28.7033 24.0742H42.1292C42.6405 24.0742 43.0551 24.4888 43.0551 25.0001C43.0551 25.5114 42.6405 25.9261 42.1292 25.9261Z" fill="#3E5798"/>
<path id="Vector_8" d="M47.685 25.9261H45.8332C45.3219 25.9261 44.9072 25.5114 44.9072 25.0001C44.9072 24.4888 45.3219 24.0742 45.8332 24.0742H47.685C48.1963 24.0742 48.6109 24.4888 48.6109 25.0001C48.6109 25.5114 48.1963 25.9261 47.685 25.9261Z" fill="#3E5798"/>
<path id="Vector_9" d="M47.685 42.5921H45.8332C45.3219 42.5921 44.9072 42.1775 44.9072 41.6662C44.9072 41.1549 45.3219 40.7402 45.8332 40.7402H47.685C48.1963 40.7402 48.6109 41.1549 48.6109 41.6662C48.6109 42.1775 48.1963 42.5921 47.685 42.5921Z" fill="#3E5798"/>
<path id="Vector_10" d="M42.1291 42.5921H29.6291C29.1178 42.5921 28.7031 42.1775 28.7031 41.6662C28.7031 41.1549 29.1178 40.7402 29.6291 40.7402H42.1291C42.6403 40.7402 43.055 41.1549 43.055 41.6662C43.055 42.1775 42.6403 42.5921 42.1291 42.5921Z" fill="#3E5798"/>
<path id="Vector_11" d="M43.9809 27.7782C42.4492 27.7782 41.2031 26.5321 41.2031 25.0004C41.2031 23.4688 42.4492 22.2227 43.9809 22.2227C45.5126 22.2227 46.7587 23.4688 46.7587 25.0004C46.7587 26.5321 45.5126 27.7782 43.9809 27.7782ZM43.9809 24.0745C43.4703 24.0745 43.055 24.4899 43.055 25.0004C43.055 25.511 43.4703 25.9264 43.9809 25.9264C44.4915 25.9264 44.9068 25.511 44.9068 25.0004C44.9068 24.4899 44.4915 24.0745 43.9809 24.0745Z" fill="#3E5798"/>
<path id="Vector_12" d="M43.9809 44.4442C42.4492 44.4442 41.2031 43.1981 41.2031 41.6664C41.2031 40.1348 42.4492 38.8887 43.9809 38.8887C45.5126 38.8887 46.7587 40.1348 46.7587 41.6664C46.7587 43.1981 45.5126 44.4442 43.9809 44.4442ZM43.9809 40.7405C43.4703 40.7405 43.055 41.1559 43.055 41.6664C43.055 42.177 43.4703 42.5924 43.9809 42.5924C44.4915 42.5924 44.9068 42.177 44.9068 41.6664C44.9068 41.1559 44.4915 40.7405 43.9809 40.7405Z" fill="#3E5798"/>
<path id="Vector_13" d="M6.01801 36.1102C4.48635 36.1102 3.24023 34.8641 3.24023 33.3325C3.24023 31.8008 4.48635 30.5547 6.01801 30.5547C7.54968 30.5547 8.79579 31.8008 8.79579 33.3325C8.79579 34.8641 7.54968 36.1102 6.01801 36.1102ZM6.01801 32.4065C5.50746 32.4065 5.09209 32.8219 5.09209 33.3325C5.09209 33.843 5.50746 34.2584 6.01801 34.2584C6.52857 34.2584 6.94394 33.843 6.94394 33.3325C6.94394 32.8219 6.52857 32.4065 6.01801 32.4065Z" fill="#3E5798"/>
</g>
</g>
</g>
</svg>
