<svg width="50" height="50" viewBox="0 0 50 50" fill="none" xmlns="http://www.w3.org/2000/svg">
<g id="noun-joints-5838550 1">
<g id="Group">
<g id="Group_2">
<path id="Vector" d="M48.3397 8.5593C48.7012 8.19772 48.7012 7.61143 48.3397 7.24976L42.7498 1.65985C42.3882 1.29828 41.8019 1.29828 41.4402 1.65985L37.7428 5.35735C28.5874 -0.607463 16.258 0.489482 8.29976 8.44763C0.342167 16.4052 -0.755889 28.7346 5.20948 37.8906L1.65985 41.4402C1.29828 41.8018 1.29828 42.3881 1.65985 42.7498L7.24976 48.3397C7.61143 48.7012 8.19754 48.7012 8.5593 48.3397L12.1086 44.7903C15.9148 47.268 20.3845 48.5863 24.9344 48.5862C31.2049 48.5862 37.1759 46.0757 41.5519 41.6997C49.5093 33.7423 50.6075 21.4128 44.6423 12.2567L48.3397 8.5593ZM42.0949 3.62402L46.3754 7.90448C46.366 7.91393 38.7862 15.4937 38.8966 15.3833C37.253 17.0269 36.4687 19.3409 36.7448 21.7317C36.8712 22.827 36.4979 23.9023 35.7205 24.6817C34.3282 26.0776 32.0526 26.0862 30.6506 24.6974C29.789 23.844 29.4179 22.6233 29.658 21.432C29.7891 20.7815 29.2133 20.2109 28.5674 20.3414C26.4702 20.7639 24.4805 19.2813 24.2812 17.1617C24.4197 14.3012 26.2556 13.0218 28.2678 13.2547C30.6585 13.5307 32.9726 12.7464 34.6162 11.1028C35.9568 9.76226 40.7481 4.97096 42.0949 3.62402ZM18.2028 21.8134C17.2149 20.6237 17.2782 18.858 18.3936 17.7428C19.5092 16.6271 21.2745 16.564 22.4641 17.5522C22.8226 20.2279 25.0786 22.209 27.7354 22.2642C27.7913 24.9473 29.8029 27.183 32.4471 27.5351C33.4325 28.723 33.3695 30.4934 32.2569 31.6061C31.1412 32.7218 29.376 32.7849 28.1862 31.7967C27.8277 29.121 25.5718 27.1399 22.9149 27.0847C22.8595 24.4278 20.8787 22.1719 18.2028 21.8134ZM12.0658 27.8295C12.2766 29.6554 11.6856 31.4146 10.444 32.6561L9.85217 33.2479C6.28809 26.6691 7.44865 18.3062 12.8035 12.9514C18.1561 7.59883 26.5143 6.43717 33.0919 9.99596C31.8665 11.0981 30.2033 11.614 28.4801 11.4151C25.7696 11.1019 23.262 12.8363 22.5883 15.4562C20.7836 14.6175 18.5739 14.9434 17.0839 16.4334C15.594 17.9234 15.2685 20.1332 16.1068 21.9377C13.5125 22.6048 11.7491 25.0881 12.0658 27.8295ZM28.0619 33.8927C29.8667 34.7313 32.0762 34.4054 33.5662 32.9154C35.0521 31.4295 35.3772 29.2158 34.5417 27.4112C37.0934 26.7547 38.9059 24.3027 38.5844 21.5192C38.3854 19.796 38.9013 18.1326 40.0036 16.9074C43.5624 23.485 42.4007 31.8433 37.0481 37.1959C31.6874 42.5566 23.3241 43.7074 16.7516 40.1472L17.3434 39.5554C18.5849 38.3139 20.3441 37.7228 22.1699 37.9337C24.9089 38.2498 27.3942 36.489 28.0619 33.8927ZM9.6093 9.75717C16.7936 2.57291 27.8947 1.36217 36.4026 6.69754L34.4601 8.64004C27.1499 4.39198 17.6775 5.45856 11.494 11.642C5.31069 17.8254 4.24393 27.2978 8.49207 34.6081L6.54967 36.5505C1.2142 28.0424 2.42504 16.9413 9.6093 9.75717ZM7.90457 46.3755L3.62411 42.095C5.6543 40.0649 11.1482 34.5711 11.7536 33.9656C13.3973 32.322 14.1816 30.008 13.9055 27.6171C13.6771 25.6394 14.9167 23.771 17.8125 23.6306C19.9337 23.83 21.4145 25.8214 20.9923 27.9168C20.8613 28.5662 21.4362 29.1383 22.0828 29.0074C23.9765 28.6258 25.9022 29.627 26.3821 32.392C26.4639 34.5954 24.573 36.3473 22.3824 36.0941C19.9922 35.8181 17.6776 36.6024 16.034 38.246C14.8575 39.4224 8.918 45.362 7.90457 46.3755ZM40.2424 40.3902C36.0396 44.5931 30.497 46.752 24.9163 46.7517C20.9576 46.7516 16.9799 45.664 13.4491 43.4499L15.3917 41.5073C22.7598 45.7828 32.2133 44.6498 38.3577 38.5054C44.5418 32.3212 45.6074 22.8489 41.3597 15.5393L43.3022 13.5968C48.6374 22.1049 47.4266 33.2061 40.2424 40.3902Z" fill="#3E5798"/>
</g>
</g>
</g>
</svg>
