<svg width="50" height="50" viewBox="0 0 50 50" fill="none" xmlns="http://www.w3.org/2000/svg">
<g id="noun-compliant-5838718 1">
<g id="Group">
<g id="Group_2">
<path id="Vector" d="M32.9928 48.6111H9.60025C6.8596 48.6111 4.62988 46.3814 4.62988 43.6407V8.21109C4.62988 5.47044 6.8596 3.24072 9.60025 3.24072H13.8891C14.4005 3.24072 14.8151 3.65535 14.8151 4.16665C14.8151 4.67794 14.4005 5.09257 13.8891 5.09257H9.60025C7.88072 5.09257 6.48173 6.49146 6.48173 8.21109V43.6407C6.48173 45.3604 7.88072 46.7592 9.60025 46.7592H32.9928C34.7124 46.7592 36.1114 45.3604 36.1114 43.6407V33.7963C36.1114 33.285 36.5259 32.8704 37.0373 32.8704C37.5487 32.8704 37.9632 33.285 37.9632 33.7963V43.6407C37.9632 46.3814 35.7335 48.6111 32.9928 48.6111Z" fill="#3E5798"/>
<path id="Vector_2" d="M37.0376 19.9074C36.5262 19.9074 36.1117 19.4928 36.1117 18.9815V8.21109C36.1117 6.49146 34.7128 5.09257 32.9931 5.09257H28.7042C28.1929 5.09257 27.7783 4.67794 27.7783 4.16665C27.7783 3.65535 28.1929 3.24072 28.7042 3.24072H32.9931C35.7338 3.24072 37.9635 5.47044 37.9635 8.21109V18.9815C37.9635 19.4928 37.549 19.9074 37.0376 19.9074Z" fill="#3E5798"/>
<path id="Vector_3" d="M27.7784 44.9073H9.25991C8.74852 44.9073 8.33398 44.4927 8.33398 43.9814V7.87026C8.33398 7.35897 8.74852 6.94434 9.25991 6.94434H33.334C33.8454 6.94434 34.2599 7.35897 34.2599 7.87026V19.973C34.2599 20.4843 33.8454 20.899 33.334 20.899C32.8226 20.899 32.4081 20.4843 32.4081 19.973V8.79619H10.1858V43.0554H27.3949L32.4081 38.0422V32.8045C32.4081 32.2932 32.8226 31.8786 33.334 31.8786C33.8454 31.8786 34.2599 32.2932 34.2599 32.8045V38.4258C34.2599 38.6714 34.1623 38.9068 33.9887 39.0805L28.4332 44.6361C28.2595 44.8097 28.024 44.9073 27.7784 44.9073Z" fill="#3E5798"/>
<path id="Vector_4" d="M28.7036 8.79608H13.8888C13.3774 8.79608 12.9629 8.38145 12.9629 7.87015V2.3146C12.9629 1.8033 13.3774 1.38867 13.8888 1.38867H28.7036C29.215 1.38867 29.6296 1.8033 29.6296 2.3146V7.87015C29.6296 8.38145 29.215 8.79608 28.7036 8.79608ZM14.8147 6.94423H27.7777V3.24052H14.8147V6.94423Z" fill="#3E5798"/>
<path id="Vector_5" d="M27.7785 44.9074C27.2671 44.9074 26.8525 44.4928 26.8525 43.9815V38.4259C26.8525 37.9146 27.2671 37.5 27.7785 37.5H33.334C33.8454 37.5 34.2599 37.9146 34.2599 38.4259C34.2599 38.9372 33.8454 39.3519 33.334 39.3519H28.7044V43.9815C28.7044 44.4928 28.2899 44.9074 27.7785 44.9074Z" fill="#3E5798"/>
<path id="Vector_6" d="M15.0859 19.6358L13.2341 17.784C12.8725 17.4224 12.8725 16.8361 13.2341 16.4745C13.5956 16.113 14.1819 16.113 14.5436 16.4745L15.7406 17.6716L18.3267 15.0856C18.6882 14.7241 19.2745 14.7241 19.6362 15.0856C19.9978 15.4471 19.9978 16.0334 19.6362 16.3951L16.3955 19.6358C16.0337 19.9975 15.4475 19.9974 15.0859 19.6358Z" fill="#3E5798"/>
<path id="Vector_7" d="M28.7043 19.907H22.2228C21.7114 19.907 21.2969 19.4924 21.2969 18.9811C21.2969 18.4698 21.7114 18.0552 22.2228 18.0552H28.7043C29.2157 18.0552 29.6302 18.4698 29.6302 18.9811C29.6302 19.4924 29.2157 19.907 28.7043 19.907Z" fill="#3E5798"/>
<path id="Vector_8" d="M25.9265 16.2034H22.2228C21.7114 16.2034 21.2969 15.7888 21.2969 15.2775C21.2969 14.7662 21.7114 14.3516 22.2228 14.3516H25.9265C26.4379 14.3516 26.8524 14.7662 26.8524 15.2775C26.8524 15.7888 26.4379 16.2034 25.9265 16.2034Z" fill="#3E5798"/>
<path id="Vector_9" d="M15.0859 27.0436L13.2341 25.1917C12.8725 24.8301 12.8725 24.2438 13.2341 23.8822C13.5956 23.5207 14.1819 23.5207 14.5436 23.8822L15.7406 25.0793L18.3267 22.4933C18.6882 22.1318 19.2745 22.1318 19.6362 22.4933C19.9978 22.8549 19.9978 23.4412 19.6362 23.8028L16.3955 27.0436C16.0337 27.4052 15.4475 27.4051 15.0859 27.0436Z" fill="#3E5798"/>
<path id="Vector_10" d="M29.6302 27.3147H22.2228C21.7114 27.3147 21.2969 26.9001 21.2969 26.3888C21.2969 25.8775 21.7114 25.4629 22.2228 25.4629H29.6302C30.1416 25.4629 30.5561 25.8775 30.5561 26.3888C30.5561 26.9001 30.1416 27.3147 29.6302 27.3147Z" fill="#3E5798"/>
<path id="Vector_11" d="M25.9265 23.6111H22.2228C21.7114 23.6111 21.2969 23.1965 21.2969 22.6852C21.2969 22.1739 21.7114 21.7593 22.2228 21.7593H25.9265C26.4379 21.7593 26.8524 22.1739 26.8524 22.6852C26.8524 23.1965 26.4379 23.6111 25.9265 23.6111Z" fill="#3E5798"/>
<path id="Vector_12" d="M15.0859 34.4513L13.2341 32.5994C12.8725 32.2378 12.8725 31.6515 13.2341 31.2899C13.5956 30.9284 14.1819 30.9284 14.5436 31.2899L15.7406 32.487L18.3267 29.901C18.6882 29.5395 19.2745 29.5395 19.6362 29.901C19.9978 30.2626 19.9978 30.8489 19.6362 31.2105L16.3955 34.4513C16.0337 34.8129 15.4475 34.8128 15.0859 34.4513Z" fill="#3E5798"/>
<path id="Vector_13" d="M28.7043 34.722H22.2228C21.7114 34.722 21.2969 34.3073 21.2969 33.796C21.2969 33.2847 21.7114 32.8701 22.2228 32.8701H28.7043C29.2157 32.8701 29.6302 33.2847 29.6302 33.796C29.6302 34.3073 29.2157 34.722 28.7043 34.722Z" fill="#3E5798"/>
<path id="Vector_14" d="M25.9265 31.0179H22.2228C21.7114 31.0179 21.2969 30.6032 21.2969 30.0919C21.2969 29.5806 21.7114 29.166 22.2228 29.166H25.9265C26.4379 29.166 26.8524 29.5806 26.8524 30.0919C26.8524 30.6032 26.4379 31.0179 25.9265 31.0179Z" fill="#3E5798"/>
<path id="Vector_15" d="M37.0374 34.7218C32.4424 34.7218 28.7041 30.9835 28.7041 26.3885C28.7041 21.7935 32.4424 18.0552 37.0374 18.0552C41.6324 18.0552 45.3708 21.7935 45.3708 26.3885C45.3708 30.9835 41.6324 34.7218 37.0374 34.7218ZM37.0374 19.907C33.4635 19.907 30.556 22.8146 30.556 26.3885C30.556 29.9624 33.4635 32.87 37.0374 32.87C40.6113 32.87 43.5189 29.9624 43.5189 26.3885C43.5189 22.8146 40.6113 19.907 37.0374 19.907Z" fill="#3E5798"/>
<path id="Vector_16" d="M35.9199 28.8956L34.0681 27.0438C33.7065 26.6822 33.7065 26.0959 34.0681 25.7342C34.4296 25.3727 35.0159 25.3727 35.3776 25.7342L36.5746 26.9313L39.1606 24.3453C39.5222 23.9838 40.1085 23.9838 40.4702 24.3453C40.8318 24.7069 40.8318 25.2932 40.4702 25.6549L37.2294 28.8956C36.8677 29.2573 36.2815 29.2572 35.9199 28.8956Z" fill="#3E5798"/>
</g>
</g>
</g>
</svg>
