<svg width="50" height="50" viewBox="0 0 50 50" fill="none" xmlns="http://www.w3.org/2000/svg">
<g id="noun-electromyography-5760402 1">
<g id="Group">
<g id="Group_2">
<path id="Vector" d="M22.685 41.2029H2.3146C1.80321 41.2029 1.38867 40.7883 1.38867 40.277V6.01772C1.38867 5.50643 1.80321 5.0918 2.3146 5.0918H22.685C23.1964 5.0918 23.6109 5.50643 23.6109 6.01772V40.277C23.6109 40.7883 23.1964 41.2029 22.685 41.2029ZM3.24052 39.3511H21.759V6.94365H3.24052V39.3511Z" fill="#3E5798"/>
<path id="Vector_2" d="M18.9817 15.2784H6.0187C5.50731 15.2784 5.09277 14.8637 5.09277 14.3524V9.7228C5.09277 9.2115 5.50731 8.79688 6.0187 8.79688H18.9817C19.4931 8.79688 19.9076 9.2115 19.9076 9.7228V14.3524C19.9076 14.8637 19.4931 15.2784 18.9817 15.2784ZM6.94463 13.4265H18.0557V10.6487H6.94463V13.4265Z" fill="#3E5798"/>
<path id="Vector_3" d="M10.6483 22.6845H6.0187C5.50731 22.6845 5.09277 22.2698 5.09277 21.7585V18.0548C5.09277 17.5435 5.50731 17.1289 6.0187 17.1289H10.6483C11.1597 17.1289 11.5743 17.5435 11.5743 18.0548V21.7585C11.5743 22.2698 11.1597 22.6845 10.6483 22.6845ZM6.94463 20.8326H9.7224V18.9808H6.94463V20.8326Z" fill="#3E5798"/>
<path id="Vector_4" d="M18.9813 22.6845H14.3517C13.8403 22.6845 13.4258 22.2698 13.4258 21.7585V18.0548C13.4258 17.5435 13.8403 17.1289 14.3517 17.1289H18.9813C19.4927 17.1289 19.9073 17.5435 19.9073 18.0548V21.7585C19.9073 22.2698 19.4927 22.6845 18.9813 22.6845ZM15.2776 20.8326H18.0554V18.9808H15.2776V20.8326Z" fill="#3E5798"/>
<path id="Vector_5" d="M10.6483 30.0927H6.0187C5.50731 30.0927 5.09277 29.678 5.09277 29.1667V25.463C5.09277 24.9517 5.50731 24.5371 6.0187 24.5371H10.6483C11.1597 24.5371 11.5743 24.9517 11.5743 25.463V29.1667C11.5743 29.678 11.1597 30.0927 10.6483 30.0927ZM6.94463 28.2408H9.7224V26.389H6.94463V28.2408Z" fill="#3E5798"/>
<path id="Vector_6" d="M18.9813 30.0927H14.3517C13.8403 30.0927 13.4258 29.678 13.4258 29.1667V25.463C13.4258 24.9517 13.8403 24.5371 14.3517 24.5371H18.9813C19.4927 24.5371 19.9073 24.9517 19.9073 25.463V29.1667C19.9073 29.678 19.4927 30.0927 18.9813 30.0927ZM15.2776 28.2408H18.0554V26.389H15.2776V28.2408Z" fill="#3E5798"/>
<path id="Vector_7" d="M10.6483 37.4989H6.0187C5.50731 37.4989 5.09277 37.0843 5.09277 36.573V32.8693C5.09277 32.358 5.50731 31.9434 6.0187 31.9434H10.6483C11.1597 31.9434 11.5743 32.358 11.5743 32.8693V36.573C11.5743 37.0843 11.1597 37.4989 10.6483 37.4989ZM6.94463 35.6471H9.7224V33.7952H6.94463V35.6471Z" fill="#3E5798"/>
<path id="Vector_8" d="M18.9813 37.4989H14.3517C13.8403 37.4989 13.4258 37.0843 13.4258 36.573V32.8693C13.4258 32.358 13.8403 31.9434 14.3517 31.9434H18.9813C19.4927 31.9434 19.9073 32.358 19.9073 32.8693V36.573C19.9073 37.0843 19.4927 37.4989 18.9813 37.4989ZM15.2776 35.6471H18.0554V33.7952H15.2776V35.6471Z" fill="#3E5798"/>
<path id="Vector_9" d="M9.7224 6.94423H6.0187C5.50731 6.94423 5.09277 6.5296 5.09277 6.0183V4.16645C5.09277 2.63478 6.33888 1.38867 7.87055 1.38867C9.40222 1.38867 10.6483 2.63478 10.6483 4.16645V6.0183C10.6483 6.5296 10.2338 6.94423 9.7224 6.94423ZM6.94463 5.09238H8.79648V4.16645C8.79648 3.65589 8.38111 3.24052 7.87055 3.24052C7.36 3.24052 6.94463 3.65589 6.94463 4.16645V5.09238Z" fill="#3E5798"/>
<path id="Vector_10" d="M18.9812 6.94423H15.2775C14.7661 6.94423 14.3516 6.5296 14.3516 6.0183V4.16645C14.3516 2.63478 15.5977 1.38867 17.1293 1.38867C18.661 1.38867 19.9071 2.63478 19.9071 4.16645V6.0183C19.9071 6.5296 19.4926 6.94423 18.9812 6.94423ZM16.2034 5.09238H18.0553V4.16645C18.0553 3.65589 17.6399 3.24052 17.1293 3.24052C16.6188 3.24052 16.2034 3.65589 16.2034 4.16645V5.09238Z" fill="#3E5798"/>
<path id="Vector_11" d="M39.3513 48.6116H14.3513C11.7985 48.6116 9.72168 46.5347 9.72168 43.9819V40.2782C9.72168 39.7669 10.1362 39.3523 10.6476 39.3523C11.159 39.3523 11.5735 39.7669 11.5735 40.2782V43.9819C11.5735 45.5136 12.8196 46.7597 14.3513 46.7597H39.3513C41.9041 46.7597 43.9809 44.6829 43.9809 42.1301V23.75C43.9809 23.2387 44.488 22.8125 44.9994 22.8125C45.5108 22.8125 45.8328 23.2387 45.8328 23.75V42.1301C45.8328 45.704 42.9252 48.6116 39.3513 48.6116Z" fill="#3E5798"/>
<path id="Vector_12" d="M32.8702 44.9079H16.2036C14.6719 44.9079 13.4258 43.6617 13.4258 42.1301V40.2782C13.4258 39.7669 13.8403 39.3523 14.3517 39.3523C14.8631 39.3523 15.2776 39.7669 15.2776 40.2782V42.1301C15.2776 42.6406 15.693 43.056 16.2036 43.056H32.8702C33.8913 43.056 34.7221 42.2253 34.7221 41.2042V23.4375C34.7221 22.9262 35.1135 22.5 35.6249 22.5C36.1363 22.5 36.5739 22.9262 36.5739 23.4375V41.2042C36.5739 43.2464 34.9124 44.9079 32.8702 44.9079Z" fill="#3E5798"/>
<path id="Vector_13" d="M38.3565 23.6343H32.8009C32.2895 23.6343 31.875 23.2196 31.875 22.7083V15.3009C31.875 14.7896 32.2895 14.375 32.8009 14.375H38.3565C38.8679 14.375 39.2824 14.7896 39.2824 15.3009V22.7083C39.2824 23.2196 38.8679 23.6343 38.3565 23.6343ZM33.7269 21.7824H37.4306V16.2269H33.7269V21.7824Z" fill="#3E5798"/>
<path id="Vector_14" d="M47.6856 23.6343H42.13C41.6186 23.6343 41.2041 23.2196 41.2041 22.7083V15.3009C41.2041 14.7896 41.6186 14.375 42.13 14.375H47.6856C48.197 14.375 48.6115 14.7896 48.6115 15.3009V22.7083C48.6115 23.2196 48.197 23.6343 47.6856 23.6343ZM43.056 21.7824H46.7597V16.2269H43.056V21.7824Z" fill="#3E5798"/>
</g>
<path id="Vector_15" d="M35.277 12.3616C35.1148 12.3616 34.9506 12.319 34.8014 12.2295C34.3629 11.9664 34.2207 11.3977 34.4838 10.9591L36.4202 7.73183H33.4259C33.1187 7.73183 32.8315 7.57942 32.6592 7.32498C32.487 7.07054 32.4521 6.7473 32.5662 6.46202L34.4181 1.83239C34.608 1.35748 35.1468 1.12646 35.6217 1.31656C36.0965 1.50656 36.3274 2.04535 36.1375 2.52017L34.7936 5.87998H38.0556C38.3892 5.87998 38.697 6.05943 38.8613 6.3497C39.0256 6.63998 39.0212 6.99619 38.8495 7.28221L36.0718 11.9118C35.8982 12.2013 35.5915 12.3616 35.277 12.3616Z" fill="#3E5798"/>
<path id="Vector_16" d="M44.652 12.3616C44.4898 12.3616 44.3256 12.319 44.1764 12.2295C43.7379 11.9664 43.5957 11.3977 43.8588 10.9591L45.7952 7.73183H42.8009C42.4937 7.73183 42.2065 7.57942 42.0342 7.32498C41.862 7.07054 41.8271 6.7473 41.9412 6.46202L43.7931 1.83239C43.983 1.35748 44.5218 1.12646 44.9967 1.31656C45.4715 1.50656 45.7024 2.04535 45.5125 2.52017L44.1686 5.87998H47.4306C47.7642 5.87998 48.072 6.05943 48.2363 6.3497C48.4006 6.63998 48.3962 6.99619 48.2245 7.28221L45.4468 11.9118C45.2732 12.2013 44.9665 12.3616 44.652 12.3616Z" fill="#3E5798"/>
</g>
</g>
</svg>
