<svg width="100" height="100" viewBox="0 0 100 100" fill="none" xmlns="http://www.w3.org/2000/svg">
<g id="noun-dna-5548086 1">
<g id="Group">
<g id="Group_2">
<g id="Group_3">
<path id="Vector" d="M86.11 87.9639C85.0874 87.9639 84.2581 87.1347 84.2581 86.1121V73.1491C84.2581 72.7632 84.3787 72.3869 84.6029 72.0726L93.5174 59.5926V13.8898C93.5174 11.8443 91.8592 10.1861 89.8137 10.1861C87.7714 10.1861 86.11 11.8476 86.11 13.8898V52.7787C86.11 53.8013 85.2807 54.6306 84.2581 54.6306C83.2355 54.6306 82.4062 53.8013 82.4062 52.7787V13.8898C82.4062 9.80539 85.7292 6.48242 89.8137 6.48242C93.9059 6.48242 97.2211 9.79687 97.2211 13.8898V60.1861C97.2211 60.5721 97.1005 60.9483 96.8762 61.2626L87.9618 73.7426V86.1121C87.9618 87.1347 87.1325 87.9639 86.11 87.9639Z" fill="#3E5798"/>
</g>
<g id="Group_4">
<path id="Vector_2" d="M58.3323 87.9634C57.3097 87.9634 56.4805 87.1342 56.4805 86.1116V74.1297C56.4805 71.3018 57.4258 68.5068 59.1429 66.2597C74.199 46.5633 73.2994 47.7073 73.4644 47.5423C76.356 44.6449 81.049 44.6446 83.941 47.5423C86.8092 50.4047 86.8388 55.046 84.0086 57.946L76.0616 67.6551C75.414 68.4464 74.2471 68.5633 73.4557 67.9151C72.6644 67.2673 72.5479 66.1005 73.1957 65.3092C81.7136 54.9077 81.1982 55.5192 81.3223 55.3957C82.769 53.9516 82.7692 51.6055 81.3223 50.1612C79.8971 48.7334 77.6094 48.7164 76.1647 50.082L62.086 68.5084C60.8597 70.1134 60.1842 72.1097 60.1842 74.1297V86.1116C60.1842 87.1342 59.3549 87.9634 58.3323 87.9634Z" fill="#3E5798"/>
</g>
<g id="Group_5">
<path id="Vector_3" d="M89.8144 97.2227H54.6292C53.6066 97.2227 52.7773 96.3935 52.7773 95.3709V86.1116C52.7773 85.089 53.6066 84.2598 54.6292 84.2598H89.8144C90.837 84.2598 91.6662 85.089 91.6662 86.1116V95.3709C91.6662 96.3935 90.837 97.2227 89.8144 97.2227ZM56.481 93.519H87.9625V87.9635H56.481V93.519Z" fill="#3E5798"/>
</g>
<g id="Group_6">
<path id="Vector_4" d="M13.8885 87.9639C12.8659 87.9639 12.0366 87.1347 12.0366 86.1121V73.7426L3.12216 61.2624C2.8979 60.9484 2.77734 60.5721 2.77734 60.1861V13.8898C2.77734 9.79761 6.09179 6.48242 10.1848 6.48242C14.2692 6.48242 17.5922 9.80539 17.5922 13.8898V52.7787C17.5922 53.8013 16.7629 54.6306 15.7403 54.6306C14.7177 54.6306 13.8885 53.8013 13.8885 52.7787V13.8898C13.8885 11.8476 12.227 10.1861 10.1848 10.1861C8.1392 10.1861 6.48105 11.8443 6.48105 13.8898V59.5926L15.3955 72.0728C15.6198 72.3869 15.7403 72.7632 15.7403 73.1491V86.1121C15.7403 87.1347 14.911 87.9639 13.8885 87.9639Z" fill="#3E5798"/>
</g>
<g id="Group_7">
<path id="Vector_5" d="M41.6652 87.9633C40.6426 87.9633 39.8133 87.1341 39.8133 86.1115V74.1296C39.8133 72.1096 39.138 70.1133 37.9115 68.5083L23.8328 50.0818C23.1446 49.4313 22.2478 49.0744 21.2948 49.0744C19.2459 49.0744 17.5911 50.7341 17.5911 52.7781C17.5911 53.768 17.9761 54.6974 18.6752 55.3954C18.7994 55.5191 18.2837 54.9076 26.8019 65.3089C27.4496 66.1002 27.3331 67.267 26.5418 67.9148C25.7504 68.563 24.5839 68.4461 23.9359 67.6548L15.9889 57.9457C13.195 55.0828 13.1537 50.4393 16.0589 47.5398C18.9415 44.6517 23.6354 44.6387 26.5333 47.5422C26.6974 47.7063 25.7674 46.5224 40.8548 66.2596C42.5717 68.5067 43.517 71.3015 43.517 74.1296V86.1115C43.517 87.1341 42.6878 87.9633 41.6652 87.9633Z" fill="#3E5798"/>
</g>
<g id="Group_8">
<path id="Vector_6" d="M45.3691 97.2227H10.1839C9.16129 97.2227 8.33203 96.3935 8.33203 95.3709V86.1116C8.33203 85.089 9.16129 84.2598 10.1839 84.2598H45.3691C46.3917 84.2598 47.2209 85.089 47.2209 86.1116V95.3709C47.2209 96.3935 46.3917 97.2227 45.3691 97.2227ZM12.0357 93.519H43.5172V87.9635H12.0357V93.519Z" fill="#3E5798"/>
</g>
</g>
<g id="Group_9">
<path id="Vector_7" d="M45.857 47.498C45.3572 47.498 44.8572 47.3074 44.4759 46.9259L33.4275 35.8775C32.6648 35.1148 32.6648 33.8781 33.4275 33.1154L38.9517 27.591C39.3179 27.2246 39.8148 27.0189 40.3328 27.0189C40.8507 27.0189 41.3476 27.2248 41.7138 27.591L45.857 31.7341L58.2867 19.3044C59.0494 18.5417 60.2861 18.5417 61.0488 19.3044L66.573 24.8287C67.3357 25.5914 67.3357 26.8281 66.573 27.591L47.238 46.9259C46.8568 47.3074 46.357 47.498 45.857 47.498ZM37.5707 34.4964L45.857 42.7828L62.4298 26.2099L59.6677 23.4478L47.238 35.8775C46.8716 36.2437 46.3749 36.4496 45.857 36.4496C45.339 36.4496 44.8421 36.2437 44.4759 35.8775L40.3328 31.7343L37.5707 34.4964Z" fill="#3E5798"/>
</g>
<g id="Group_10">
<path id="Vector_8" d="M50 57.2637C35.9996 57.2637 24.6094 45.8734 24.6094 31.873C24.6094 17.8727 35.9996 6.48242 50 6.48242C64.0004 6.48242 75.3906 17.8727 75.3906 31.873C75.3906 45.8734 64.0004 57.2637 50 57.2637ZM50 10.3887C38.1535 10.3887 28.5156 20.0266 28.5156 31.873C28.5156 43.7195 38.1535 53.3574 50 53.3574C61.8465 53.3574 71.4844 43.7195 71.4844 31.873C71.4844 20.0266 61.8465 10.3887 50 10.3887Z" fill="#3E5798"/>
</g>
</g>
</g>
</svg>
