<svg width="50" height="50" viewBox="0 0 50 50" fill="none" xmlns="http://www.w3.org/2000/svg">
<g id="noun-rehabilitation-5760379 1">
<g id="Group">
<g id="Group_2">
<path id="Vector" d="M24.701 48.5149C12.9728 44.5102 5.09277 33.4928 5.09277 21.0996V11.5276C5.09277 11.102 5.38287 10.7312 5.79592 10.6289C12.6069 8.94072 18.8779 5.91229 24.4348 1.62766C24.768 1.3709 25.2323 1.37081 25.5656 1.62766C31.1225 5.9122 37.3934 8.94072 44.2045 10.6289C44.6176 10.7313 44.9077 11.102 44.9077 11.5277V21.0997C44.9077 33.4928 37.0277 44.5102 25.2994 48.515C25.1056 48.5811 24.895 48.5812 24.701 48.5149ZM6.94463 12.2469V21.0996C6.94463 32.5951 14.1868 42.8257 25.0002 46.6583C35.8136 42.8257 43.0557 32.5951 43.0557 21.0996V12.2469C36.4943 10.5257 30.4268 7.59433 25.0002 3.52414C19.5735 7.59433 13.5059 10.5257 6.94463 12.2469Z" fill="#3E5798"/>
<path id="Vector_2" d="M24.656 44.8409C15.0934 41.0081 8.79688 31.7403 8.79688 21.3912V14.3425C8.79688 13.9352 9.06299 13.5758 9.45252 13.457C14.8124 11.8215 19.8662 9.37427 24.4735 6.18335C24.7905 5.96362 25.2108 5.96362 25.5278 6.18335C30.1348 9.37427 35.1886 11.8215 40.5487 13.457C40.9383 13.5758 41.2044 13.9353 41.2044 14.3425V21.3912C41.2044 31.7345 34.9129 41.006 25.3452 44.8409C25.1239 44.9296 24.8772 44.9296 24.656 44.8409ZM10.6487 15.0236V21.3912C10.6487 30.8894 16.2696 39.323 25.0006 42.9808C33.7316 39.323 39.3524 30.8894 39.3524 21.3912V15.0236C34.2548 13.3999 29.4332 11.0625 25.0006 8.06631C20.5678 11.0626 15.7461 13.4 10.6487 15.0236Z" fill="#3E5798"/>
<path id="Vector_3" d="M27.3145 36.1107H22.6849C22.1736 36.1107 21.759 35.6962 21.759 35.1848V28.7033H15.2775C14.7662 28.7033 14.3516 28.2888 14.3516 27.7774V23.1478C14.3516 22.6364 14.7662 22.2219 15.2775 22.2219H21.759V15.7404C21.759 15.229 22.1736 14.8145 22.6849 14.8145H27.3145C27.8258 14.8145 28.2405 15.229 28.2405 15.7404V22.2219H34.7219C35.2332 22.2219 35.6479 22.6364 35.6479 23.1478V27.7774C35.6479 28.2888 35.2332 28.7033 34.7219 28.7033H28.2405V35.1848C28.2405 35.6962 27.8258 36.1107 27.3145 36.1107ZM23.6108 34.2589H26.3886V27.7774C26.3886 27.266 26.8032 26.8515 27.3145 26.8515H33.796V24.0737H27.3145C26.8032 24.0737 26.3886 23.6592 26.3886 23.1478V16.6663H23.6108V23.1478C23.6108 23.6592 23.1962 24.0737 22.6849 24.0737H16.2034V26.8515H22.6849C23.1962 26.8515 23.6108 27.266 23.6108 27.7774V34.2589Z" fill="#3E5798"/>
</g>
</g>
</g>
</svg>
