<svg width="75" height="13" viewBox="0 0 75 13" fill="none" xmlns="http://www.w3.org/2000/svg">
<g id="logo">
<g id="&#208;&#173;&#208;&#154;&#208;&#151;&#208;&#144;&#208;&#160;&#208;&#162;&#208;&#144;">
<path d="M5.66756 12.8396C4.24511 12.8396 3.01159 12.4198 1.96698 11.5802C0.933481 10.7405 0.277822 9.72595 0 8.53644H1.63359C1.91141 9.34111 2.41149 10.0058 3.13383 10.5306C3.86728 11.0437 4.71186 11.3003 5.66756 11.3003C6.85664 11.3003 7.87347 10.9096 8.71804 10.1283C9.56262 9.33528 10.0627 8.33236 10.2183 7.11953H4.11732V5.61516H10.2016C10.0238 4.42566 9.51817 3.4519 8.6847 2.69388C7.85124 1.9242 6.84553 1.53936 5.66756 1.53936C4.71186 1.53936 3.86728 1.80175 3.13383 2.32653C2.41149 2.83965 1.91141 3.50437 1.63359 4.3207H0C0.277822 3.1312 0.933481 2.11662 1.96698 1.27697C3.00047 0.425656 4.234 0 5.66756 0C7.41228 0 8.86807 0.618076 10.0349 1.85423C11.2129 3.07872 11.8019 4.60058 11.8019 6.41982C11.8019 8.23907 11.2129 9.76676 10.0349 11.0029C8.86807 12.2274 7.41228 12.8396 5.66756 12.8396Z" fill="#003859"/>
<path d="M21.9549 12.6472L15.6706 6.73469V12.6472H14.137V0.227405H15.6706V5.61516L20.8381 0.227405H22.855L17.2208 6.13994L24.1386 12.6472H21.9549Z" fill="#003859"/>
<path d="M25.8636 3.23615H24.3133C24.5023 2.1516 24.9579 1.34694 25.6802 0.822157C26.4137 0.285714 27.2471 0.0174925 28.1806 0.0174925C29.2475 0.0174925 30.1087 0.326531 30.7644 0.944607C31.4311 1.56268 31.7645 2.36735 31.7645 3.3586C31.7645 4.57143 31.2756 5.49271 30.2976 6.12245C30.9199 6.39067 31.3922 6.793 31.7145 7.32944C32.0368 7.86589 32.1979 8.47813 32.1979 9.16618C32.1979 10.3324 31.809 11.242 31.0311 11.895C30.2532 12.5364 29.303 12.8571 28.1806 12.8571C27.0804 12.8571 26.1303 12.5598 25.3302 11.965C24.53 11.3703 24.0522 10.5189 23.8966 9.41108H25.4469C25.5913 10.0641 25.9136 10.5481 26.4137 10.863C26.9249 11.1778 27.5194 11.3353 28.1973 11.3353C28.953 11.3353 29.5531 11.1312 29.9976 10.723C30.4532 10.3032 30.681 9.7551 30.681 9.07872C30.681 8.43732 30.4699 7.91837 30.0476 7.52187C29.6364 7.12536 29.0474 6.92711 28.2806 6.92711H26.9138V5.54519H28.2806C28.903 5.54519 29.3864 5.35277 29.7309 4.96793C30.0754 4.58309 30.2476 4.10496 30.2476 3.53353C30.2476 2.92711 30.0587 2.44315 29.6809 2.08163C29.3141 1.70845 28.7974 1.52187 28.1306 1.52187C27.5861 1.52187 27.1027 1.66764 26.6804 1.95918C26.2692 2.25073 25.9969 2.67638 25.8636 3.23615Z" fill="#003859"/>
<path d="M33.116 12.6472L38.3502 0.227405H39.6337L44.8846 12.6472H43.2676L41.7341 9.02624H36.2165L34.7163 12.6472H33.116ZM38.967 2.43149L36.8333 7.55685H41.1173L38.967 2.43149Z" fill="#003859"/>
<path d="M53.0987 1.34694C53.8544 2.09329 54.2323 3.0379 54.2323 4.18076C54.2323 5.32361 53.8544 6.26822 53.0987 7.01458C52.3542 7.74927 51.3763 8.11662 50.1649 8.11662H48.098V12.6472H46.5477V0.227405H50.1649C51.3763 0.227405 52.3542 0.600583 53.0987 1.34694ZM52.0152 5.93003C52.4709 5.47522 52.6987 4.89213 52.6987 4.18076C52.6987 3.46939 52.4709 2.8863 52.0152 2.43149C51.5707 1.97668 50.954 1.74927 50.1649 1.74927H48.098V6.61224H50.1649C50.954 6.61224 51.5707 6.38484 52.0152 5.93003Z" fill="#003859"/>
<path d="M58.7153 12.6472V1.76676H55.0313V0.227405H63.9161V1.76676H60.2322V12.6472H58.7153Z" fill="#003859"/>
<path d="M63.2315 12.6472L68.4656 0.227405H69.7492L75 12.6472H73.3831L71.8495 9.02624H66.332L64.8317 12.6472H63.2315ZM69.0824 2.43149L66.9487 7.55685H71.2327L69.0824 2.43149Z" fill="#003859"/>
</g>
</g>
</svg>
