<svg width="117" height="121" viewBox="0 0 117 121" fill="none" xmlns="http://www.w3.org/2000/svg">
<g id="logo">
<g id="&#208;&#173;&#208;&#154;&#208;&#151;&#208;&#144;&#208;&#160;&#208;&#162;&#208;&#144;">
<path d="M8.8414 120.974C6.62238 120.974 4.69808 120.354 3.06848 119.113C1.45623 117.872 0.433402 116.373 0 114.615H2.5484C2.9818 115.804 3.76193 116.786 4.88877 117.562C6.03295 118.32 7.3505 118.699 8.8414 118.699C10.6964 118.699 12.2826 118.122 13.6001 116.967C14.9177 115.795 15.6978 114.313 15.9405 112.521H6.42302V110.298H15.9145C15.6371 108.54 14.8483 107.101 13.5481 105.981C12.2479 104.844 10.679 104.275 8.8414 104.275C7.3505 104.275 6.03295 104.663 4.88877 105.438C3.76193 106.196 2.9818 107.179 2.5484 108.385H0C0.433402 106.627 1.45623 105.128 3.06848 103.887C4.68074 102.629 6.60504 102 8.8414 102C11.5632 102 13.8342 102.913 15.6545 104.74C17.4921 106.55 18.4109 108.799 18.4109 111.487C18.4109 114.176 17.4921 116.433 15.6545 118.26C13.8342 120.069 11.5632 120.974 8.8414 120.974Z" fill="#003859"/>
<path d="M34.2496 120.69L24.4461 111.952V120.69H22.0537V102.336H24.4461V110.298L32.5074 102.336H35.6539L26.8645 111.073L37.6562 120.69H34.2496Z" fill="#003859"/>
<path d="M40.3472 106.782H37.9288C38.2235 105.18 38.9343 103.99 40.0612 103.215C41.2053 102.422 42.5055 102.026 43.9618 102.026C45.626 102.026 46.9696 102.483 47.9924 103.396C49.0326 104.309 49.5527 105.498 49.5527 106.963C49.5527 108.756 48.7899 110.117 47.2643 111.048C48.2351 111.444 48.9719 112.039 49.4746 112.831C49.9774 113.624 50.2288 114.529 50.2288 115.546C50.2288 117.269 49.622 118.613 48.4085 119.578C47.195 120.526 45.7127 121 43.9618 121C42.2455 121 40.7633 120.561 39.5151 119.682C38.2669 118.803 37.5214 117.545 37.2787 115.907H39.6971C39.9225 116.873 40.4252 117.588 41.2053 118.053C42.0028 118.518 42.9303 118.751 43.9878 118.751C45.1666 118.751 46.1028 118.449 46.7962 117.846C47.507 117.226 47.8624 116.416 47.8624 115.416C47.8624 114.468 47.533 113.702 46.8742 113.116C46.2328 112.53 45.314 112.237 44.1178 112.237H41.9855V110.195H44.1178C45.0886 110.195 45.8427 109.91 46.3802 109.341C46.9176 108.773 47.1863 108.066 47.1863 107.222C47.1863 106.326 46.8916 105.61 46.3021 105.076C45.7301 104.525 44.9239 104.249 43.8838 104.249C43.0343 104.249 42.2802 104.464 41.6214 104.895C40.98 105.326 40.5552 105.955 40.3472 106.782Z" fill="#003859"/>
<path d="M51.661 120.69L59.8263 102.336H61.8286L70.0199 120.69H67.4975L65.1051 115.339H56.4978L54.1574 120.69H51.661ZM60.7885 105.593L57.4599 113.167H64.143L60.7885 105.593Z" fill="#003859"/>
<path d="M82.8341 103.99C84.0129 105.093 84.6023 106.489 84.6023 108.178C84.6023 109.867 84.0129 111.263 82.8341 112.366C81.6725 113.452 80.147 113.995 78.2573 113.995H75.0328V120.69H72.6144V102.336H78.2573C80.147 102.336 81.6725 102.888 82.8341 103.99ZM81.1438 110.763C81.8546 110.091 82.21 109.229 82.21 108.178C82.21 107.127 81.8546 106.265 81.1438 105.593C80.4503 104.921 79.4882 104.585 78.2573 104.585H75.0328V111.771H78.2573C79.4882 111.771 80.4503 111.435 81.1438 110.763Z" fill="#003859"/>
<path d="M91.5958 120.69V104.611H85.8489V102.336H99.7091V104.611H93.9622V120.69H91.5958Z" fill="#003859"/>
<path d="M98.6411 120.69L106.806 102.336H108.809L117 120.69H114.478L112.085 115.339H103.478L101.137 120.69H98.6411ZM107.769 105.593L104.44 113.167H111.123L107.769 105.593Z" fill="#003859"/>
</g>
<path id="Vector" d="M110.809 31.4917C110.428 30.7312 109.475 30.5411 108.903 30.9213C104.329 33.3929 99.3725 33.7732 94.6072 33.7732C94.4166 32.6324 94.226 31.4917 93.8447 30.351C92.3198 26.5485 88.6982 23.5065 84.1234 21.9856C77.6425 19.8942 70.018 20.8448 63.1559 24.8374C61.0591 25.9781 59.153 27.309 57.2468 28.83C56.4844 27.4991 55.7219 26.1683 54.7688 25.0275C47.3349 14.1906 33.8013 2.59309 28.8453 0.121498C28.6547 0.121498 27.511 -0.448869 26.7486 0.881988C24.4612 4.30419 11.3088 43.4694 38.7573 65.3335C43.332 68.9458 48.4786 70.847 54.197 70.847C42.3789 83.205 19.5052 87.1976 8.25901 87.958C20.2677 82.6346 27.511 73.5087 33.6107 64.1927C33.9919 63.6224 33.8013 62.6718 33.2295 62.2915C32.467 61.9113 31.7045 62.1014 31.3233 62.6718C23.5081 74.6495 15.5023 83.3951 1.3969 87.5778C0.0626026 87.958 -0.128011 88.9086 0.0626029 89.2889C0.0626029 89.8593 0.443832 90.6198 1.77813 90.8099C2.54059 91 3.68427 91 5.01857 91C17.4085 91 53.0533 86.0568 62.3934 63.4323C65.4432 55.8274 64.6808 44.9904 60.2967 34.7238C59.9154 33.9633 59.153 33.583 58.3905 33.9633C57.6281 34.3435 57.2468 35.104 57.6281 35.8645C61.8216 45.5607 62.584 55.4471 59.7248 62.4816C58.9624 64.3829 58.0093 66.094 56.675 67.8051C50.766 68.3754 45.2381 66.6643 40.6634 63.052C39.3291 61.9113 37.9948 60.7705 36.8511 59.6298C37.423 58.8693 37.8042 57.9187 38.376 57.1582C45.2381 46.1311 52.1003 34.9139 64.6808 27.6892C70.971 24.0769 77.6425 23.1263 83.361 25.0275C87.1732 26.3584 90.0324 28.83 91.3667 31.8719C91.748 32.6324 91.748 33.2028 91.9386 33.9633C91.3667 33.9633 90.7949 33.9633 90.2231 33.7732C83.361 33.3929 77.0707 33.0127 73.6396 38.3361C70.971 42.7089 72.6866 47.6521 76.1176 49.9336C77.4519 50.8842 79.1674 51.4545 81.0736 51.4545C84.1234 51.4545 87.7451 49.7434 91.3667 45.3706C92.5104 43.8496 93.4635 42.1385 94.226 40.6176C94.6072 39.8571 94.226 39.0966 93.4635 38.7163C92.701 38.5262 91.9386 38.7163 91.5574 39.4768C90.9855 40.8077 90.2231 42.1385 89.27 43.4694C84.8859 49.1731 80.5017 49.1731 78.0238 47.462C75.7364 45.941 74.5927 42.5188 76.4988 39.667C78.9768 35.6744 84.1234 36.0546 90.4137 36.4349C96.8946 36.8151 104.138 37.3855 111 33.583C110.809 33.0127 111.191 32.2522 110.809 31.4917ZM35.7074 55.257C35.3262 55.8274 34.945 56.3977 34.5638 56.9681C18.1709 37.3855 25.9861 8.86713 28.4641 2.97333C33.8013 6.39554 45.6194 16.6621 52.2909 26.3584C53.2439 27.6892 54.0064 29.0201 54.7688 30.351C46.5724 37.5756 41.0446 46.5114 35.7074 55.257ZM79.5487 55.4471C80.1205 56.0175 80.3111 56.778 79.7393 57.5385C75.7364 62.4816 70.2086 66.4742 64.4902 68.5656C64.2996 68.5656 64.1089 68.5656 63.9183 68.5656C63.3465 68.5656 62.7746 68.1853 62.584 67.6149C62.3934 66.8545 62.584 66.094 63.3465 65.7137C68.6837 63.8125 73.449 60.01 77.2613 55.4471C78.0238 55.0669 78.9768 54.8767 79.5487 55.4471Z" fill="#FF3C62"/>
</g>
</svg>
