<svg width="156" height="43" viewBox="0 0 156 43" fill="none" xmlns="http://www.w3.org/2000/svg">
<g id="header">
<g id="logo">
<g id="&#208;&#173;&#208;&#154;&#208;&#151;&#208;&#144;&#208;&#160;&#208;&#162;&#208;&#144;">
<path d="M7.78345 29.9769C5.82996 29.9769 4.13591 29.4218 2.70132 28.3116C1.28198 27.2014 0.381542 25.8599 0 24.2871H2.24347C2.62501 25.351 3.31178 26.2299 4.30379 26.9238C5.31106 27.6023 6.47095 27.9415 7.78345 27.9415C9.41645 27.9415 10.8129 27.4249 11.9728 26.3918C13.1327 25.3433 13.8194 24.0172 14.0331 22.4136H5.65445V20.4245H14.0102C13.766 18.8517 13.0716 17.5642 11.927 16.5619C10.7824 15.5442 9.40119 15.0354 7.78345 15.0354C6.47095 15.0354 5.31106 15.3823 4.30379 16.0762C3.31178 16.7546 2.62501 17.6336 2.24347 18.7129H0C0.381542 17.1401 1.28198 15.7986 2.70132 14.6884C4.12065 13.5628 5.8147 13 7.78345 13C10.1795 13 12.1788 13.8172 13.7813 15.4517C15.399 17.0707 16.2079 19.083 16.2079 21.4884C16.2079 23.8939 15.399 25.9138 13.7813 27.5483C12.1788 29.1673 10.1795 29.9769 7.78345 29.9769Z" fill="#003859"/>
<path d="M30.1514 29.7224L21.5209 21.9048V29.7224H19.4148V13.3007H21.5209V20.4245L28.6176 13.3007H31.3876L23.6499 21.1184L33.1503 29.7224H30.1514Z" fill="#003859"/>
<path d="M35.5193 17.2789H33.3903C33.6498 15.8449 34.2755 14.781 35.2675 14.0871C36.2748 13.3778 37.4194 13.0231 38.7014 13.0231C40.1665 13.0231 41.3493 13.4317 42.2497 14.249C43.1654 15.0662 43.6233 16.1302 43.6233 17.4408C43.6233 19.0444 42.9518 20.2626 41.6087 21.0952C42.4634 21.4499 43.112 21.9819 43.5546 22.6912C43.9972 23.4005 44.2185 24.21 44.2185 25.1197C44.2185 26.6617 43.6843 27.8644 42.616 28.7279C41.5477 29.576 40.2428 30 38.7014 30C37.1905 30 35.8856 29.6068 34.7868 28.8204C33.6879 28.034 33.0317 26.9084 32.818 25.4435H34.947C35.1454 26.307 35.588 26.9469 36.2748 27.3633C36.9768 27.7796 37.7933 27.9878 38.7243 27.9878C39.7621 27.9878 40.5862 27.7179 41.1967 27.1782C41.8224 26.6231 42.1353 25.8984 42.1353 25.0041C42.1353 24.156 41.8453 23.4698 41.2654 22.9456C40.7007 22.4213 39.8918 22.1592 38.8387 22.1592H36.9616V20.332H38.8387C39.6934 20.332 40.3573 20.0776 40.8304 19.5687C41.3035 19.0599 41.5401 18.4277 41.5401 17.6721C41.5401 16.8703 41.2806 16.2304 40.7617 15.7524C40.2581 15.259 39.5484 15.0122 38.6327 15.0122C37.8849 15.0122 37.221 15.205 36.6411 15.5905C36.0764 15.976 35.7025 16.5388 35.5193 17.2789Z" fill="#003859"/>
<path d="M45.4794 29.7224L52.6676 13.3007H54.4303L61.6415 29.7224H59.4209L57.3148 24.9347H49.7374L47.677 29.7224H45.4794ZM53.5146 16.215L50.5844 22.9918H56.4678L53.5146 16.215Z" fill="#003859"/>
<path d="M72.9223 14.781C73.9601 15.7678 74.479 17.0168 74.479 18.5279C74.479 20.039 73.9601 21.288 72.9223 22.2748C71.8997 23.2463 70.5567 23.732 68.8932 23.732H66.0545V29.7224H63.9255V13.3007H68.8932C70.5567 13.3007 71.8997 13.7941 72.9223 14.781ZM71.4343 20.8408C72.06 20.2395 72.3729 19.4685 72.3729 18.5279C72.3729 17.5873 72.06 16.8163 71.4343 16.215C70.8238 15.6136 69.9768 15.3129 68.8932 15.3129H66.0545V21.7429H68.8932C69.9768 21.7429 70.8238 21.4422 71.4343 20.8408Z" fill="#003859"/>
<path d="M80.6356 29.7224V15.3361H75.5764V13.3007H87.7781V15.3361H82.7188V29.7224H80.6356Z" fill="#003859"/>
<path d="M86.8379 29.7224L94.0261 13.3007H95.7889L103 29.7224H100.779L98.6733 24.9347H91.0959L89.0356 29.7224H86.8379ZM94.8732 16.215L91.9429 22.9918H97.8263L94.8732 16.215Z" fill="#003859"/>
</g>
<path id="Vector" d="M155.909 14.8807C155.727 14.5213 155.272 14.4315 154.999 14.6112C152.815 15.7791 150.448 15.9587 148.173 15.9587C148.082 15.4197 147.991 14.8807 147.809 14.3417C147.081 12.5449 145.351 11.1075 143.167 10.3888C140.073 9.40057 136.432 9.84976 133.156 11.7364C132.154 12.2754 131.244 12.9043 130.334 13.623C129.97 12.9941 129.606 12.3652 129.151 11.8262C125.601 6.70543 119.139 1.22531 116.773 0.0574113C116.682 0.0574113 116.136 -0.212103 115.772 0.416764C114.68 2.03385 108.4 20.5405 121.506 30.8719C123.69 32.5788 126.147 33.4772 128.878 33.4772C123.235 39.3166 112.313 41.2032 106.943 41.5626C112.677 39.0471 116.136 34.7349 119.048 30.3328C119.23 30.0633 119.139 29.6141 118.866 29.4345C118.502 29.2548 118.138 29.3446 117.956 29.6141C114.225 35.2739 110.402 39.4065 103.667 41.3829C103.03 41.5626 102.939 42.0118 103.03 42.1915C103.03 42.461 103.212 42.8203 103.849 42.9102C104.213 43 104.759 43 105.396 43C111.312 43 128.332 40.6642 132.791 29.9735C134.248 26.38 133.884 21.2592 131.79 16.4079C131.608 16.0486 131.244 15.8689 130.88 16.0486C130.516 16.2283 130.334 16.5876 130.516 16.947C132.518 21.5287 132.882 26.2003 131.517 29.5243C131.153 30.4227 130.698 31.2312 130.061 32.0398C127.24 32.3093 124.6 31.5007 122.416 29.7938C121.779 29.2548 121.142 28.7157 120.596 28.1767C120.869 27.8174 121.051 27.3682 121.324 27.0088C124.6 21.7982 127.877 16.4978 133.884 13.0839C136.887 11.377 140.073 10.9278 142.803 11.8262C144.623 12.4551 145.988 13.623 146.626 15.0604C146.808 15.4197 146.808 15.6892 146.899 16.0486C146.626 16.0486 146.353 16.0486 146.079 15.9587C142.803 15.7791 139.8 15.5994 138.161 18.1149C136.887 20.1811 137.706 22.5169 139.344 23.595C139.982 24.0442 140.801 24.3137 141.711 24.3137C143.167 24.3137 144.896 23.5051 146.626 21.4389C147.172 20.7202 147.627 19.9116 147.991 19.1929C148.173 18.8336 147.991 18.4742 147.627 18.2945C147.263 18.2047 146.899 18.2945 146.717 18.6539C146.444 19.2828 146.079 19.9116 145.624 20.5405C143.531 23.2356 141.438 23.2356 140.255 22.4271C139.162 21.7084 138.616 20.0913 139.526 18.7437C140.71 16.8571 143.167 17.0368 146.17 17.2165C149.265 17.3962 152.723 17.6657 156 15.8689C155.909 15.5994 156.091 15.24 155.909 14.8807ZM120.049 26.1104C119.867 26.38 119.685 26.6495 119.503 26.919C111.676 17.6657 115.408 4.18996 116.591 1.40498C119.139 3.02207 124.782 7.87332 127.968 12.4551C128.423 13.0839 128.787 13.7128 129.151 14.3417C125.237 17.7555 122.598 21.9779 120.049 26.1104ZM140.983 26.2003C141.256 26.4698 141.347 26.8291 141.074 27.1885C139.162 29.5243 136.523 31.4109 133.793 32.3991C133.702 32.3991 133.611 32.3991 133.52 32.3991C133.247 32.3991 132.973 32.2194 132.882 31.9499C132.791 31.5906 132.882 31.2312 133.247 31.0515C135.795 30.1532 138.07 28.3564 139.891 26.2003C140.255 26.0206 140.71 25.9308 140.983 26.2003Z" fill="#FF3C62"/>
</g>
</g>
</svg>
