<svg width="16" height="16" viewBox="0 0 16 16" fill="none" xmlns="http://www.w3.org/2000/svg">
<g id="arrow-right">
<path id="Vector" d="M10.1843 2.18255C9.99955 2.48165 10.0387 2.91671 10.2727 3.15359L11.9254 4.82792L14.0964 7.31108L0.539156 7.31108C0.241183 7.31108 0 7.62078 0 8.00238C0 8.38398 0.241183 8.69368 0.539156 8.69368H13.9609L10.1944 12.8659C9.96936 13.1148 9.94384 13.5517 10.1387 13.8406C10.3335 14.1296 10.6739 14.1614 10.8992 13.9116L15.8131 8.46832C15.9306 8.33835 15.9986 8.14986 16 7.95076C16 7.94892 16 7.94707 16 7.94523C16 7.74798 15.9346 7.56041 15.8199 7.42952L12.6188 3.76977L10.9416 2.06917C10.708 1.83228 10.3691 1.88298 10.1843 2.18255Z" fill="#3E5798"/>
</g>
</svg>
