<svg width="16" height="16" viewBox="0 0 16 16" fill="none" xmlns="http://www.w3.org/2000/svg">
<g id="arrow-left">
<path id="Vector" d="M5.8157 2.18255C6.00045 2.48165 5.96127 2.91671 5.72728 3.15359L4.07458 4.82792L1.90358 7.31108L15.4608 7.31108C15.7588 7.31108 16 7.62078 16 8.00238C16 8.38398 15.7588 8.69368 15.4608 8.69368H2.03909L5.80564 12.8659C6.03064 13.1148 6.05616 13.5517 5.86135 13.8406C5.66653 14.1296 5.32615 14.1614 5.10078 13.9116L0.18691 8.46832C0.0693731 8.33835 0.00143814 8.14986 9.53674e-07 7.95076C9.53674e-07 7.94892 9.53674e-07 7.94707 9.53674e-07 7.94523C9.53674e-07 7.74798 0.0654211 7.56041 0.180081 7.42952L3.38123 3.76977L5.05837 2.06917C5.292 1.83228 5.63095 1.88298 5.8157 2.18255Z" fill="#3E5798"/>
</g>
</svg>
