<svg width="135" height="111" viewBox="0 0 135 111" fill="none" xmlns="http://www.w3.org/2000/svg">
<path id="Vector" d="M134.768 38.4129C134.305 37.4853 133.145 37.2534 132.45 37.7172C126.886 40.732 120.858 41.1958 115.063 41.1958C114.831 39.8044 114.599 38.4129 114.135 37.0215C112.281 32.3833 107.876 28.6728 102.312 26.8176C94.4301 24.2666 85.157 25.4261 76.8112 30.2962C74.2611 31.6876 71.9428 33.311 69.6245 35.1662C68.6972 33.5429 67.7699 31.9195 66.6108 30.5281C57.5695 17.3094 41.1097 3.163 35.0822 0.148201C34.8503 0.148201 33.4594 -0.547521 32.5321 1.07583C29.7501 5.25017 13.754 53.0231 47.1372 79.6925C52.7011 84.0987 58.9604 86.4178 65.9153 86.4178C51.5419 101.492 23.7226 106.362 10.0447 107.289C24.6499 100.796 33.4594 89.6645 40.8779 78.301C41.3415 77.6053 41.1097 76.4458 40.4142 75.982C39.4869 75.5182 38.5596 75.7501 38.0959 76.4458C28.591 91.056 18.8542 101.724 1.69893 106.826C0.0761383 107.289 -0.155689 108.449 0.0761386 108.913C0.0761386 109.609 0.539796 110.536 2.16259 110.768C3.0899 111 4.48087 111 6.10367 111C21.1725 111 64.5243 104.97 75.8839 77.3734C79.5931 68.0971 78.6658 54.8784 73.3338 42.3554C72.8701 41.4277 71.9428 40.9639 71.0155 41.4277C70.0882 41.8916 69.6245 42.8192 70.0882 43.7468C75.1884 55.5741 76.1157 67.6333 72.6383 76.2139C71.711 78.533 70.5518 80.6201 68.929 82.7073C61.7424 83.403 55.0194 81.3158 49.4555 76.9096C47.8327 75.5182 46.2099 74.1267 44.8189 72.7353C45.5144 71.8076 45.9781 70.6481 46.6736 69.7205C55.0194 56.2698 63.3652 42.5873 78.6658 33.7748C86.3161 29.3685 94.4301 28.209 101.385 30.5281C106.022 32.1514 109.499 35.1662 111.122 38.8768C111.585 39.8044 111.585 40.5001 111.817 41.4277C111.122 41.4277 110.426 41.4277 109.731 41.1958C101.385 40.732 93.7346 40.2682 89.5617 46.7616C86.3161 52.0955 88.4026 58.1251 92.5755 60.908C94.1983 62.0675 96.2847 62.7632 98.603 62.7632C102.312 62.7632 106.717 60.6761 111.122 55.3422C112.513 53.4869 113.672 51.3998 114.599 49.5445C115.063 48.6169 114.599 47.6892 113.672 47.2254C112.745 46.9935 111.817 47.2254 111.354 48.1531C110.658 49.7764 109.731 51.3998 108.572 53.0231C103.24 59.9803 97.9075 59.9803 94.8938 57.8932C92.1118 56.0379 90.7209 51.8636 93.0391 48.385C96.0529 43.5149 102.312 43.9787 109.963 44.4425C117.845 44.9064 126.654 45.6021 135 40.9639C134.768 40.2682 135.232 39.3406 134.768 38.4129ZM43.428 67.4014C42.9643 68.0971 42.5006 68.7928 42.037 69.4886C22.0998 45.6021 31.6047 10.8159 34.6185 3.62681C41.1097 7.80115 55.483 20.3242 63.597 32.1514C64.7561 33.7748 65.6834 35.3981 66.6108 37.0215C56.6422 45.834 49.9191 56.7336 43.428 67.4014ZM96.7484 67.6333C97.4439 68.329 97.6757 69.2566 96.9802 70.1843C92.1118 76.2139 85.3888 81.0839 78.434 83.6349C78.2022 83.6349 77.9703 83.6349 77.7385 83.6349C77.043 83.6349 76.3475 83.1711 76.1157 82.4754C75.8839 81.5477 76.1157 80.6201 77.043 80.1563C83.5342 77.8372 89.3299 73.1991 93.9665 67.6333C94.8938 67.1695 96.0529 66.9376 96.7484 67.6333Z" fill="#FF3C62"/>
</svg>
