<svg width="30" height="30" viewBox="0 0 30 30" fill="none" xmlns="http://www.w3.org/2000/svg">
<g id="bars">
<path id="Vector" d="M3.34325 7.78736H27.8575C28.3783 7.78736 28.8004 7.37074 28.8004 6.85675V4.53022C28.8004 4.01623 28.3783 3.59961 27.8575 3.59961H3.34325C2.8225 3.59961 2.40039 4.01623 2.40039 4.53022V6.85675C2.40039 7.37074 2.8225 7.78736 3.34325 7.78736ZM3.34325 17.0935H27.8575C28.3783 17.0935 28.8004 16.6769 28.8004 16.1629V13.8363C28.8004 13.3224 28.3783 12.9057 27.8575 12.9057H3.34325C2.8225 12.9057 2.40039 13.3224 2.40039 13.8363V16.1629C2.40039 16.6769 2.8225 17.0935 3.34325 17.0935ZM3.34325 26.3996H27.8575C28.3783 26.3996 28.8004 25.983 28.8004 25.469V23.1425C28.8004 22.6285 28.3783 22.2119 27.8575 22.2119H3.34325C2.8225 22.2119 2.40039 22.6285 2.40039 23.1425V25.469C2.40039 25.983 2.8225 26.3996 3.34325 26.3996Z" fill="#3E5798"/>
</g>
</svg>
