<svg width="50" height="50" viewBox="0 0 50 50" fill="none" xmlns="http://www.w3.org/2000/svg">
<g id="la:check-circle">
<path id="Vector" d="M25 4.6875C13.75 4.6875 4.6875 13.75 4.6875 25C4.6875 36.25 13.75 45.3125 25 45.3125C36.25 45.3125 45.3125 36.25 45.3125 25C45.3125 23.6827 45.2057 22.3672 44.9495 21.0845C44.7104 19.8872 43.2643 19.5583 42.3929 20.4136C41.9636 20.835 41.7966 21.4509 41.9097 22.0417C42.0903 22.9848 42.1891 23.9504 42.1891 25C42.1891 34.5344 34.5359 42.1875 25.0016 42.1875C15.4672 42.1875 7.8125 34.5344 7.8125 25C7.8125 15.4656 15.4656 7.8125 25 7.8125C29.1108 7.8125 32.8551 9.24852 35.7154 11.6031C36.378 12.1485 37.3575 12.155 37.9643 11.5482C38.5709 10.9416 38.5749 9.95285 37.9219 9.39649C34.4456 6.43453 29.9119 4.6875 25 4.6875ZM43.75 12.5C43.1296 11.8796 42.1236 11.8796 41.5032 12.5001L25 29.0047L19.4343 23.4377C18.8139 22.8172 17.8079 22.8171 17.1874 23.4376C16.567 24.058 16.567 25.0639 17.1874 25.6843L23.8766 32.3734L25 33.4469L26.1234 32.3734L43.75 14.7469C44.3705 14.1264 44.3705 13.1205 43.75 12.5Z" fill="#3E5798"/>
</g>
</svg>
