<svg width="16" height="16" viewBox="0 0 16 16" fill="none" xmlns="http://www.w3.org/2000/svg">
<g id="city">
<path id="Vector" d="M15.4 6.875H12V2.60938C12 2.2727 11.7315 2 11.4 2H7.8C7.4685 2 7.2 2.2727 7.2 2.60938V4.4375H5.6V2.40625C5.6 2.1818 5.421 2 5.2 2H4.8C4.579 2 4.4 2.1818 4.4 2.40625V4.4375H2.8V2.40625C2.8 2.1818 2.621 2 2.4 2H2C1.779 2 1.6 2.1818 1.6 2.40625V4.4375H0.6C0.2685 4.4375 0 4.7102 0 5.04688V14.1875C0 14.6362 0.35825 15 0.8 15H15.2C15.6418 15 16 14.6362 16 14.1875V7.48438C16 7.1477 15.7312 6.875 15.4 6.875ZM3.2 12.2578C3.2 12.4262 3.06575 12.5625 2.9 12.5625H1.9C1.73425 12.5625 1.6 12.4262 1.6 12.2578V11.2422C1.6 11.0738 1.73425 10.9375 1.9 10.9375H2.9C3.06575 10.9375 3.2 11.0738 3.2 11.2422V12.2578ZM3.2 9.82031C3.2 9.98865 3.06575 10.125 2.9 10.125H1.9C1.73425 10.125 1.6 9.98865 1.6 9.82031V8.80469C1.6 8.63635 1.73425 8.5 1.9 8.5H2.9C3.06575 8.5 3.2 8.63635 3.2 8.80469V9.82031ZM3.2 7.38281C3.2 7.55115 3.06575 7.6875 2.9 7.6875H1.9C1.73425 7.6875 1.6 7.55115 1.6 7.38281V6.36719C1.6 6.19885 1.73425 6.0625 1.9 6.0625H2.9C3.06575 6.0625 3.2 6.19885 3.2 6.36719V7.38281ZM6.4 12.2578C6.4 12.4262 6.26575 12.5625 6.1 12.5625H5.1C4.93425 12.5625 4.8 12.4262 4.8 12.2578V11.2422C4.8 11.0738 4.93425 10.9375 5.1 10.9375H6.1C6.26575 10.9375 6.4 11.0738 6.4 11.2422V12.2578ZM6.4 9.82031C6.4 9.98865 6.26575 10.125 6.1 10.125H5.1C4.93425 10.125 4.8 9.98865 4.8 9.82031V8.80469C4.8 8.63635 4.93425 8.5 5.1 8.5H6.1C6.26575 8.5 6.4 8.63635 6.4 8.80469V9.82031ZM6.4 7.38281C6.4 7.55115 6.26575 7.6875 6.1 7.6875H5.1C4.93425 7.6875 4.8 7.55115 4.8 7.38281V6.36719C4.8 6.19885 4.93425 6.0625 5.1 6.0625H6.1C6.26575 6.0625 6.4 6.19885 6.4 6.36719V7.38281ZM10.4 9.82031C10.4 9.98865 10.2657 10.125 10.1 10.125H9.1C8.93425 10.125 8.8 9.98865 8.8 9.82031V8.80469C8.8 8.63635 8.93425 8.5 9.1 8.5H10.1C10.2657 8.5 10.4 8.63635 10.4 8.80469V9.82031ZM10.4 7.38281C10.4 7.55115 10.2657 7.6875 10.1 7.6875H9.1C8.93425 7.6875 8.8 7.55115 8.8 7.38281V6.36719C8.8 6.19885 8.93425 6.0625 9.1 6.0625H10.1C10.2657 6.0625 10.4 6.19885 10.4 6.36719V7.38281ZM10.4 4.94531C10.4 5.11365 10.2657 5.25 10.1 5.25H9.1C8.93425 5.25 8.8 5.11365 8.8 4.94531V3.92969C8.8 3.76135 8.93425 3.625 9.1 3.625H10.1C10.2657 3.625 10.4 3.76135 10.4 3.92969V4.94531ZM14.4 12.2578C14.4 12.4262 14.2657 12.5625 14.1 12.5625H13.1C12.9342 12.5625 12.8 12.4262 12.8 12.2578V11.2422C12.8 11.0738 12.9342 10.9375 13.1 10.9375H14.1C14.2657 10.9375 14.4 11.0738 14.4 11.2422V12.2578ZM14.4 9.82031C14.4 9.98865 14.2657 10.125 14.1 10.125H13.1C12.9342 10.125 12.8 9.98865 12.8 9.82031V8.80469C12.8 8.63635 12.9342 8.5 13.1 8.5H14.1C14.2657 8.5 14.4 8.63635 14.4 8.80469V9.82031Z" fill="#3E5798"/>
</g>
</svg>
