<svg width="20" height="125" viewBox="0 0 20 125" fill="none" xmlns="http://www.w3.org/2000/svg">
<circle cx="10" cy="10" r="10" transform="matrix(1 0 0 -1 0 125)" fill="white"/>
<rect width="4" height="10" rx="2" transform="matrix(1 0 0 -1 8 100)" fill="#FEFEFE"/>
<rect width="4" height="10" rx="2" transform="matrix(1 0 0 -1 8 85)" fill="#E1E6FF"/>
<rect width="4" height="10" rx="2" transform="matrix(1 0 0 -1 8 70)" fill="#E1E6FF"/>
<rect width="4" height="10" rx="2" transform="matrix(1 0 0 -1 8 55)" fill="#E1E6FF"/>
<rect width="4" height="10" rx="2" transform="matrix(1 0 0 -1 8 40)" fill="#E1E6FF"/>
<rect width="4" height="10" rx="2" transform="matrix(1 0 0 -1 8 25)" fill="#E1E6FF"/>
<rect width="4" height="10" rx="2" transform="matrix(1 0 0 -1 8 10)" fill="#E1E6FF"/>
</svg>
