<svg width="20" height="20" viewBox="0 0 20 20" fill="none" xmlns="http://www.w3.org/2000/svg">
<g id="fluent:document-32-regular">
<path id="Vector" d="M5 1.25C4.50272 1.25 4.02581 1.44754 3.67417 1.79917C3.32254 2.15081 3.125 2.62772 3.125 3.125V16.875C3.125 17.3723 3.32254 17.8492 3.67417 18.2008C4.02581 18.5525 4.50272 18.75 5 18.75H15C15.4973 18.75 15.9742 18.5525 16.3258 18.2008C16.6775 17.8492 16.875 17.3723 16.875 16.875V6.7675C16.8747 6.27048 16.6771 5.7939 16.3256 5.4425L12.6831 1.79875C12.3315 1.44732 11.8547 1.24994 11.3575 1.25H5ZM4.375 3.125C4.375 2.95924 4.44085 2.80027 4.55806 2.68306C4.67527 2.56585 4.83424 2.5 5 2.5H10.625V5.625C10.625 6.12228 10.8225 6.59919 11.1742 6.95083C11.5258 7.30246 12.0027 7.5 12.5 7.5H15.625V16.875C15.625 17.0408 15.5592 17.1997 15.4419 17.3169C15.3247 17.4342 15.1658 17.5 15 17.5H5C4.83424 17.5 4.67527 17.4342 4.55806 17.3169C4.44085 17.1997 4.375 17.0408 4.375 16.875V3.125ZM15.3663 6.25H12.5C12.3342 6.25 12.1753 6.18415 12.0581 6.06694C11.9408 5.94973 11.875 5.79076 11.875 5.625V2.75875L15.3663 6.25Z" fill="#3E5798"/>
</g>
</svg>
