<svg width="100" height="100" viewBox="0 0 100 100" fill="none" xmlns="http://www.w3.org/2000/svg">
<g clip-path="url(#clip0_1158_5338)">
<path d="M100 50C100 22.3858 77.6142 0 50 0C22.3858 0 0 22.3858 0 50V100H50C77.6142 100 100 77.6142 100 50Z" fill="#E9FFFD"/>
<path d="M150 110C150 68.5786 116.421 35 75 35C33.5786 35 0 68.5786 0 110V185H150V110Z" fill="#D2F8E6"/>
</g>
<defs>
<clipPath id="clip0_1158_5338">
<path d="M100 50C100 22.3858 77.6142 0 50 0C22.3858 0 0 22.3858 0 50V100H50C77.6142 100 100 77.6142 100 50Z" fill="white"/>
</clipPath>
</defs>
</svg>
