<svg width="120" height="97" viewBox="0 0 120 97" fill="none" xmlns="http://www.w3.org/2000/svg">
<path id="Vector" d="M119.794 33.5681C119.382 32.7574 118.351 32.5548 117.733 32.9601C112.788 35.5946 107.43 36 102.278 36C102.072 34.784 101.866 33.5681 101.454 32.3521C99.8052 28.299 95.8899 25.0564 90.9442 23.4352C83.9379 21.2059 75.6951 22.2192 68.2766 26.475C66.0098 27.691 63.9492 29.1096 61.8885 30.7309C61.0642 29.3122 60.2399 27.8936 59.2096 26.6777C51.1729 15.1262 36.5419 2.76406 31.1841 0.129509C30.9781 0.129509 29.7417 -0.478465 28.9174 0.940141C26.4445 4.58798 12.2258 46.3355 41.8997 69.6412C46.8454 73.4917 52.4093 75.5183 58.5914 75.5183C45.8151 88.691 21.0867 92.9468 8.92866 93.7575C21.911 88.0831 29.7417 78.3555 36.3359 68.4252C36.748 67.8173 36.5419 66.804 35.9237 66.3987C35.0995 65.9933 34.2752 66.196 33.863 66.804C25.4142 79.5714 16.7593 88.8937 1.51016 93.3522C0.0676785 93.7575 -0.13839 94.7708 0.0676788 95.1761C0.0676788 95.784 0.479819 96.5947 1.9223 96.7973C2.74658 97 3.983 97 5.42548 97C18.82 97 57.3549 91.7309 67.4523 67.6146C70.7494 59.5083 69.9252 47.9568 65.1856 37.0132C64.7734 36.2026 63.9492 35.7973 63.1249 36.2026C62.3006 36.6079 61.8885 37.4186 62.3006 38.2292C66.8341 48.5648 67.6584 59.103 64.5674 66.6013C63.7431 68.6279 62.7127 70.4518 61.2703 72.2757C54.8821 72.8837 48.9061 71.0598 43.9604 67.2093C42.518 65.9933 41.0755 64.7774 39.8391 63.5614C40.4573 62.7508 40.8694 61.7375 41.4876 60.9269C48.9061 49.1727 56.3246 37.2159 69.9252 29.5149C76.7254 25.6644 83.9379 24.6511 90.12 26.6777C94.2413 28.0963 97.3324 30.7309 98.7749 33.9734C99.187 34.784 99.187 35.392 99.3931 36.2026C98.7749 36.2026 98.1567 36.2026 97.5385 36C90.12 35.5946 83.3197 35.1893 79.6104 40.8637C76.7254 45.5249 78.5801 50.794 82.2893 53.2259C83.7318 54.2392 85.5864 54.8471 87.6471 54.8471C90.9442 54.8471 94.8595 53.0232 98.7749 48.3621C100.011 46.7408 101.042 44.9169 101.866 43.2956C102.278 42.485 101.866 41.6744 101.042 41.2691C100.217 41.0664 99.3931 41.2691 98.9809 42.0797C98.3627 43.4983 97.5385 44.9169 96.5081 46.3355C91.7685 52.4152 87.0289 52.4153 84.35 50.5913C81.8772 48.9701 80.6408 45.3222 82.7015 42.2824C85.3804 38.0265 90.9442 38.4319 97.7445 38.8372C104.751 39.2425 112.582 39.8505 120 35.7973C119.794 35.1893 120.206 34.3787 119.794 33.5681ZM38.6026 58.9003C38.1905 59.5083 37.7784 60.1163 37.3662 60.7242C19.6443 39.8505 28.0931 9.45177 30.772 3.16938C36.5419 6.81722 49.3182 17.7607 56.5307 28.0963C57.561 29.5149 58.3853 30.9335 59.2096 32.3521C50.3486 40.0531 44.3726 49.578 38.6026 58.9003ZM85.9986 59.103C86.6168 59.7109 86.8228 60.5216 86.2046 61.3322C81.8772 66.6013 75.9012 70.8571 69.7191 73.0864C69.513 73.0864 69.307 73.0864 69.1009 73.0864C68.4827 73.0864 67.8645 72.681 67.6584 72.0731C67.4523 71.2624 67.6584 70.4518 68.4827 70.0465C74.2526 68.0199 79.4044 63.9668 83.5257 59.103C84.35 58.6976 85.3804 58.495 85.9986 59.103Z" fill="#FF3C62"/>
</svg>
