<svg width="26" height="26" viewBox="0 0 26 26" fill="none" xmlns="http://www.w3.org/2000/svg">
<g id="la:telegram-plane">
<path id="Vector" d="M22.5985 2.60168C22.3203 2.62193 22.0471 2.68721 21.7898 2.79499H21.7863C21.5392 2.89295 20.3646 3.38706 18.5789 4.13603L12.1797 6.83112C7.58789 8.76423 3.07412 10.6679 3.07412 10.6679L3.12787 10.6471C3.12787 10.6471 2.81666 10.7494 2.49159 10.9721C2.29076 11.0999 2.11794 11.2671 1.9836 11.4637C1.8241 11.6977 1.6958 12.0557 1.74348 12.4259C1.8215 13.0518 2.22719 13.4271 2.51846 13.6343C2.81319 13.8441 3.09406 13.942 3.09406 13.942H3.10099L7.3339 15.368C7.52374 15.9774 8.62379 19.594 8.88819 20.427C9.04422 20.9246 9.19593 21.2358 9.38577 21.4734C9.47766 21.5947 9.58515 21.6961 9.71431 21.7776C9.78146 21.8167 9.85305 21.8475 9.92756 21.8695L9.88422 21.8591C9.89722 21.8626 9.90762 21.873 9.91716 21.8764C9.95183 21.886 9.97524 21.8894 10.0194 21.8964C10.6895 22.0992 11.2279 21.6831 11.2279 21.6831L11.2582 21.6589L13.7574 19.3833L17.9461 22.5968L18.0414 22.6376C18.9144 23.0207 19.7986 22.8075 20.2658 22.4312C20.7365 22.0524 20.9194 21.5678 20.9194 21.5678L20.9498 21.4898L24.1866 4.90755C24.2785 4.49838 24.3019 4.11523 24.2005 3.74334C24.0959 3.36697 23.8544 3.04327 23.5235 2.83574C23.2456 2.6668 22.9233 2.58525 22.5985 2.60168ZM22.511 4.37876C22.5075 4.43337 22.5179 4.4273 22.4936 4.53219V4.54173L19.2871 20.9515C19.2732 20.9749 19.2498 21.0261 19.1857 21.0772C19.1181 21.1309 19.0643 21.1647 18.7826 21.0529L13.6594 17.1252L10.5647 19.9459L11.2149 15.7936L19.5853 7.99185C19.9303 7.67111 19.815 7.6035 19.815 7.6035C19.8393 7.20994 19.294 7.4882 19.294 7.4882L8.73909 14.027L8.73562 14.0096L3.67659 12.3062V12.3028L3.66359 12.3002C3.67246 12.2972 3.68114 12.2938 3.68959 12.2898L3.71733 12.2759L3.74421 12.2664C3.74421 12.2664 8.26144 10.3627 12.8532 8.42962C15.1522 7.46133 17.4684 6.48611 19.2498 5.73367C20.3063 5.28897 21.3639 4.84687 22.4226 4.40736C22.4936 4.37962 22.4598 4.37876 22.511 4.37876Z" fill="#3E5798"/>
</g>
</svg>
