<svg width="27" height="16" viewBox="0 0 27 16" fill="none" xmlns="http://www.w3.org/2000/svg">
<path fill-rule="evenodd" clip-rule="evenodd" d="M25.7915 1.34897C25.9694 0.763966 25.7915 0.333252 24.9397 0.333252H22.1272C21.4115 0.333252 21.0815 0.705038 20.9026 1.11539C20.9026 1.11539 19.4722 4.53968 17.4461 6.76397C16.7904 7.40897 16.4926 7.61361 16.1347 7.61361C15.9558 7.61361 15.6869 7.40897 15.6869 6.82289V1.34897C15.6869 0.646109 15.4897 0.333252 14.894 0.333252H10.4711C10.0244 0.333252 9.75543 0.658966 9.75543 0.968609C9.75543 1.63397 10.769 1.78825 10.8729 3.66111V7.73039C10.8729 8.6229 10.709 8.78468 10.3511 8.78468C9.39758 8.78468 7.07793 5.34432 5.70115 1.40789C5.43436 0.641823 5.16436 0.333252 4.44543 0.333252H1.63079C0.827218 0.333252 0.666504 0.705038 0.666504 1.11539C0.666504 1.84611 1.62008 5.47611 5.10758 10.2772C7.43258 13.5558 10.7058 15.3333 13.6876 15.3333C15.4758 15.3333 15.6965 14.939 15.6965 14.2586V11.7804C15.6965 10.9908 15.8658 10.8333 16.4326 10.8333C16.8504 10.8333 17.5651 11.039 19.2344 12.6193C21.1415 14.4933 21.4554 15.3333 22.529 15.3333H25.3415C26.1451 15.3333 26.5479 14.939 26.3165 14.159C26.0615 13.3833 25.1508 12.2572 23.9433 10.9211C23.2876 10.1604 22.304 9.34075 22.0051 8.9304C21.5883 8.40432 21.7072 8.16968 22.0051 7.70147C22.0051 7.70147 25.4336 2.95932 25.7904 1.34897H25.7915Z" fill="#3E5798"/>
</svg>
