<svg width="26" height="26" viewBox="0 0 26 26" fill="none" xmlns="http://www.w3.org/2000/svg">
<g clip-path="url(#clip0_2101_214)">
<path d="M24.7436 7.14866C24.471 6.12219 23.6678 5.31377 22.6479 5.03942C20.7994 4.54089 13.387 4.54089 13.387 4.54089C13.387 4.54089 5.9747 4.54089 4.12613 5.03942C3.10629 5.31381 2.30308 6.12219 2.03047 7.14866C1.53516 9.00921 1.53516 12.8911 1.53516 12.8911C1.53516 12.8911 1.53516 16.7729 2.03047 18.6335C2.30308 19.6599 3.10629 20.4347 4.12613 20.709C5.9747 21.2076 13.387 21.2076 13.387 21.2076C13.387 21.2076 20.7993 21.2076 22.6479 20.709C23.6678 20.4347 24.471 19.6599 24.7436 18.6335C25.2389 16.7729 25.2389 12.8911 25.2389 12.8911C25.2389 12.8911 25.2389 9.00921 24.7436 7.14866ZM10.9628 16.4155V9.36663L17.158 12.8912L10.9628 16.4155Z" fill="#3E5798"/>
</g>
<defs>
<clipPath id="clip0_2101_214">
<rect width="25" height="25" fill="white" transform="translate(0.886719 0.374268)"/>
</clipPath>
</defs>
</svg>
